<svg xmlns="http://www.w3.org/2000/svg" width="28.264" height="28.264" viewBox="0 0 28.264 28.264">
  <path id="instagram-footer-mobile" d="M14.132,2.512a43.332,43.332,0,0,1,5.653.157,7.283,7.283,0,0,1,2.669.471A5.515,5.515,0,0,1,25.124,5.81a7.283,7.283,0,0,1,.471,2.669c0,1.413.157,1.884.157,5.653a43.332,43.332,0,0,1-.157,5.653,7.283,7.283,0,0,1-.471,2.669,5.515,5.515,0,0,1-2.669,2.669,7.283,7.283,0,0,1-2.669.471c-1.413,0-1.884.157-5.653.157a43.332,43.332,0,0,1-5.653-.157,7.283,7.283,0,0,1-2.669-.471A5.515,5.515,0,0,1,3.14,22.454a7.283,7.283,0,0,1-.471-2.669c0-1.413-.157-1.884-.157-5.653a43.332,43.332,0,0,1,.157-5.653A7.283,7.283,0,0,1,3.14,5.81a5.64,5.64,0,0,1,1.1-1.57,2.655,2.655,0,0,1,1.57-1.1,7.283,7.283,0,0,1,2.669-.471,43.332,43.332,0,0,1,5.653-.157m0-2.512a46.4,46.4,0,0,0-5.81.157A9.694,9.694,0,0,0,4.868.785a6.147,6.147,0,0,0-2.512,1.57A6.147,6.147,0,0,0,.785,4.868,7.154,7.154,0,0,0,.157,8.322,46.4,46.4,0,0,0,0,14.132a46.4,46.4,0,0,0,.157,5.81A9.694,9.694,0,0,0,.785,23.4a6.147,6.147,0,0,0,1.57,2.512,6.147,6.147,0,0,0,2.512,1.57,9.694,9.694,0,0,0,3.455.628,46.4,46.4,0,0,0,5.81.157,46.4,46.4,0,0,0,5.81-.157,9.694,9.694,0,0,0,3.455-.628A6.588,6.588,0,0,0,27.479,23.4a9.694,9.694,0,0,0,.628-3.455c0-1.57.157-2.041.157-5.81a46.4,46.4,0,0,0-.157-5.81,9.694,9.694,0,0,0-.628-3.455,6.147,6.147,0,0,0-1.57-2.512A6.147,6.147,0,0,0,23.4.785,9.694,9.694,0,0,0,19.942.157,46.4,46.4,0,0,0,14.132,0m0,6.909a7.107,7.107,0,0,0-7.223,7.223,7.223,7.223,0,1,0,7.223-7.223m0,11.934a4.627,4.627,0,0,1-4.711-4.711,4.627,4.627,0,0,1,4.711-4.711,4.627,4.627,0,0,1,4.711,4.711,4.627,4.627,0,0,1-4.711,4.711M21.669,4.868A1.727,1.727,0,1,0,23.4,6.595a1.743,1.743,0,0,0-1.727-1.727" fill="#fff" fill-rule="evenodd"/>
</svg>
