<svg xmlns="http://www.w3.org/2000/svg" width="26.812" height="26.917" viewBox="0 0 26.812 26.917">
  <path id="linkedin-footer-mobile" d="M1705.212,5208.356v21.693c-.022.064.007.572,0,.638a2.552,2.552,0,0,1-1.276,1.913c-.427.254-.8,0-1.276,0-7.141,0-14.552,0-21.693,0-.6,0-.781-.259-1.276-.637-.712-.542-1.276-1.055-1.276-1.914,0-6.976,0-14.078,0-21.055a6.081,6.081,0,0,1,0-.638,2.965,2.965,0,0,1,1.914-2.552c.133-.03.5.026.638,0h21.693c.072.022.564-.006.638,0a2.231,2.231,0,0,1,1.914,1.915C1705.231,5207.843,1705.187,5208.231,1705.212,5208.356Zm-12.122,8.932c0-.356,0-.361,0-.637,0-.48-.157-.639-.638-.639-.966,0-2.225,0-3.19,0-.541,0-.638.092-.638.639,0,4.122,0,8,0,12.121,0,.555.088,1.275.638,1.277.939,0,2.251,0,3.19,0,.554,0,.638-.715.638-1.277,0-2.1,0-4.275,0-6.38a4.418,4.418,0,0,1,.638-1.914,1.8,1.8,0,0,1,1.914-1.275,2.372,2.372,0,0,1,1.915,1.913,9.746,9.746,0,0,1,0,1.915c.022,2.087,0,3.654,0,5.741a1.54,1.54,0,0,0,1.276,1.277h2.552a1.5,1.5,0,0,0,1.276-1.277c-.01-2.522-.6-5.133-.638-7.656-.015-1.025.388-1.589,0-2.551a5.181,5.181,0,0,0-2.552-2.552,5.878,5.878,0,0,0-4.466,0A3.377,3.377,0,0,0,1693.089,5217.289Zm-10.846,5.743c0,2.052,0,3.69,0,5.741,0,.58.059,1.275.638,1.277.869,0,1.682,0,2.552,0a1.229,1.229,0,0,0,1.276-1.277c0-4.007,0-8.114,0-12.121,0-.08.005.077,0,0-.03-.48-.156-.637-.638-.639-.939,0-2.251,0-3.19,0-.568,0-.638.067-.638.639C1682.243,5218.7,1682.243,5220.979,1682.243,5223.031Zm5.1-11.484c0-1.59-1.605-2.553-3.19-2.552a2.361,2.361,0,0,0-2.552,2.552c.008,1.652.961,3.175,2.552,3.189A3.453,3.453,0,0,0,1687.347,5211.547Z" transform="translate(-1678.405 -5205.795)" fill="#fff"/>
</svg>
