<svg xmlns="http://www.w3.org/2000/svg" xmlns:xlink="http://www.w3.org/1999/xlink" width="165" height="165" viewBox="0 0 165 165">
  <defs>
    <clipPath id="clip-path">
      <rect id="_2021Jun14_AmpSol_Website2-Icons_GR01_LearningBenefits" data-name="2021Jun14_AmpSol_Website2-Icons_GR01_LearningBenefits" width="165" height="165" transform="translate(325 2264)" fill="#fff0f2"/>
    </clipPath>
  </defs>
  <g id="Mask_Group_76" data-name="Mask Group 76" transform="translate(-325 -2264)" clip-path="url(#clip-path)">
    <g id="Group_2474" data-name="Group 2474" transform="translate(354 2280)">
      <path id="Path_1143" data-name="Path 1143" d="M-326.127,48H-431.664a.657.657,0,0,0-.657.657V180.109a.657.657,0,0,0,.657.657h66.853a.657.657,0,0,0,.657-.657.675.675,0,0,0-.009-.094l37.943-37.943a.675.675,0,0,0,.094.01.657.657,0,0,0,.657-.657V48.657A.657.657,0,0,0-326.127,48Zm-104.88,1.315h104.223v91.078h-38.4a.657.657,0,0,0-.657.657v38.4h-65.163Zm103.293,92.392-36.816,36.816V141.707Z" transform="translate(432.321 -48)" fill="#618bc8"/>
      <path id="Path_1144" data-name="Path 1144" d="M-349.927,330.286h-38.309a.657.657,0,0,0-.657.657.658.658,0,0,0,.657.657h38.309a.658.658,0,0,0,.657-.657A.657.657,0,0,0-349.927,330.286Z" transform="translate(403.165 -237.518)" fill="#618bc8"/>
      <path id="Path_1145" data-name="Path 1145" d="M-349.927,365.714h-38.309a.658.658,0,0,0-.657.657.657.657,0,0,0,.657.657h38.309a.657.657,0,0,0,.657-.657A.658.658,0,0,0-349.927,365.714Z" transform="translate(403.165 -261.304)" fill="#618bc8"/>
      <path id="Path_1146" data-name="Path 1146" d="M-349.927,402.286h-38.309a.657.657,0,0,0-.657.657.658.658,0,0,0,.657.657h38.309a.658.658,0,0,0,.657-.657A.657.657,0,0,0-349.927,402.286Z" transform="translate(403.165 -285.857)" fill="#618bc8"/>
      <path id="Path_1147" data-name="Path 1147" d="M-332.307,147.733a52.531,52.531,0,0,0,12.067,8.345.656.656,0,0,0,.277.061.656.656,0,0,0,.277-.061,52.532,52.532,0,0,0,12.067-8.345c7.924-7.279,12.112-15.893,12.112-24.908V96.657a.657.657,0,0,0-.657-.657h-47.6a.657.657,0,0,0-.657.657v26.167C-344.419,131.84-340.231,140.453-332.307,147.733Zm-10.8-50.418h46.284v25.51c0,10.9-6.341,19.021-11.659,23.915a53.09,53.09,0,0,1-11.482,8.011,53.089,53.089,0,0,1-11.482-8.011c-5.319-4.894-11.66-13.015-11.66-23.915Z" transform="translate(373.306 -80.226)" fill="#618bc8"/>
      <path id="Path_1148" data-name="Path 1148" d="M-298.923,170.1a.656.656,0,0,0,.465.193h0a.658.658,0,0,0,.467-.2l18.4-18.928a.657.657,0,0,0-.013-.929.657.657,0,0,0-.929.013l-17.934,18.45-9.059-9.059a.658.658,0,0,0-.93,0,.657.657,0,0,0,0,.929Z" transform="translate(349.289 -116.512)" fill="#618bc8"/>
    </g>
  </g>
</svg>
