<svg xmlns="http://www.w3.org/2000/svg" xmlns:xlink="http://www.w3.org/1999/xlink" width="165" height="165" viewBox="0 0 165 165">
  <defs>
    <clipPath id="clip-path">
      <rect id="_2021Jun14_AmpSol_Website2-Icons_GR01_LearningBenefits" data-name="2021Jun14_AmpSol_Website2-Icons_GR01_LearningBenefits" width="165" height="165" transform="translate(878 2654)" fill="#fff0f2"/>
    </clipPath>
  </defs>
  <g id="Mask_Group_74" data-name="Mask Group 74" transform="translate(-878 -2654)" clip-path="url(#clip-path)">
    <g id="Group_2473" data-name="Group 2473" transform="translate(894.693 2670.701)">
      <path id="Path_1137" data-name="Path 1137" d="M290.715,628.283a61.439,61.439,0,0,0-1.239-10.32,60.7,60.7,0,0,0-48.646-47.393,10.4,10.4,0,1,0-.078,1.349,59.364,59.364,0,0,1,47.411,46.317,60.149,60.149,0,0,1,1.21,10.063,8.042,8.042,0,1,0,1.341-.015Zm-60.28-48.577a9.056,9.056,0,1,1,9.056-9.056A9.067,9.067,0,0,1,230.436,579.706Zm59.71,63.279a6.69,6.69,0,0,1-.083-13.379h.021l.015,0,.047,0a6.691,6.691,0,0,1,0,13.383Z" transform="translate(-166.585 -560.252)" fill="#1d1c4b"/>
      <path id="Path_1138" data-name="Path 1138" d="M162.151,756.815a6.55,6.55,0,0,0-3.743,10.571,59.368,59.368,0,0,1-92.332-61.007,6.35,6.35,0,0,0,.952.076,6.419,6.419,0,0,0,6.283-7.721h0a6.415,6.415,0,1,0-8.533,7.306,60.144,60.144,0,0,0-.112,25.259,60.712,60.712,0,0,0,94.706,37.049,6.561,6.561,0,1,0,2.779-11.533ZM62.063,701.07a5.074,5.074,0,0,1,3.936-6,5.118,5.118,0,0,1,1.042-.108,5.075,5.075,0,1,1-4.978,6.108ZM167.851,766.1a5.221,5.221,0,1,1-5.426-7.975,5.26,5.26,0,0,1,1.072-.111,5.222,5.222,0,0,1,4.354,8.086Z" transform="translate(-60.613 -648.904)" fill="#1d1c4b"/>
      <path id="Path_1139" data-name="Path 1139" d="M229.387,759.785a10.4,10.4,0,1,0-10.4-10.4A10.409,10.409,0,0,0,229.387,759.785Zm0-19.454a9.056,9.056,0,1,1-9.056,9.056A9.066,9.066,0,0,1,229.387,740.331Z" transform="translate(-165.888 -679.061)" fill="#1d1c4b"/>
      <path id="Path_1140" data-name="Path 1140" d="M170.978,720.121h3.706a1.549,1.549,0,0,1,1.49,1.094,20.092,20.092,0,0,0,1.669,4.021,1.546,1.546,0,0,1-.275,1.825l-2.627,2.627a2.9,2.9,0,0,0,0,4.1l2.371,2.372a2.9,2.9,0,0,0,4.1,0l2.628-2.627a1.545,1.545,0,0,1,1.824-.275,20.1,20.1,0,0,0,4.022,1.669,1.549,1.549,0,0,1,1.094,1.49v3.706a2.9,2.9,0,0,0,2.9,2.9h3.354a2.9,2.9,0,0,0,2.9-2.9v-3.706a1.549,1.549,0,0,1,1.094-1.49,20.091,20.091,0,0,0,4.021-1.669,1.547,1.547,0,0,1,1.825.275l2.627,2.627a2.9,2.9,0,0,0,4.1,0l2.372-2.372a2.9,2.9,0,0,0,0-4.1l-2.627-2.628a1.545,1.545,0,0,1-.275-1.824,20.1,20.1,0,0,0,1.669-4.022,1.549,1.549,0,0,1,1.49-1.094h3.706a2.9,2.9,0,0,0,2.9-2.9v-3.354a2.9,2.9,0,0,0-2.9-2.9h-3.706a1.549,1.549,0,0,1-1.49-1.094,20.088,20.088,0,0,0-1.669-4.021,1.546,1.546,0,0,1,.275-1.825l2.627-2.627a2.9,2.9,0,0,0,0-4.1l-2.372-2.371a2.9,2.9,0,0,0-4.1,0l-2.628,2.627a1.544,1.544,0,0,1-1.824.275,20.113,20.113,0,0,0-4.022-1.669,1.549,1.549,0,0,1-1.094-1.49v-3.706a2.9,2.9,0,0,0-2.9-2.9h-3.354a2.9,2.9,0,0,0-2.9,2.9v3.706a1.549,1.549,0,0,1-1.094,1.49,20.1,20.1,0,0,0-4.021,1.669,1.546,1.546,0,0,1-1.825-.275l-2.627-2.627a2.9,2.9,0,0,0-4.1,0l-2.371,2.371a2.9,2.9,0,0,0,0,4.1l2.627,2.628a1.545,1.545,0,0,1,.275,1.824,20.1,20.1,0,0,0-1.669,4.022,1.549,1.549,0,0,1-1.49,1.094h-3.706a2.9,2.9,0,0,0-2.9,2.9v3.354A2.9,2.9,0,0,0,170.978,720.121Zm-1.555-6.25a1.556,1.556,0,0,1,1.555-1.555h3.706a2.9,2.9,0,0,0,2.778-2.058,18.742,18.742,0,0,1,1.557-3.753,2.893,2.893,0,0,0-.5-3.418l-2.627-2.627a1.557,1.557,0,0,1,0-2.2l2.372-2.371a1.558,1.558,0,0,1,2.2,0l2.627,2.627a2.893,2.893,0,0,0,3.419.5,18.736,18.736,0,0,1,3.753-1.557,2.9,2.9,0,0,0,2.058-2.778v-3.706a1.556,1.556,0,0,1,1.555-1.555h3.354a1.556,1.556,0,0,1,1.555,1.555v3.706a2.9,2.9,0,0,0,2.058,2.778,18.745,18.745,0,0,1,3.753,1.557,2.891,2.891,0,0,0,3.418-.5l2.627-2.627a1.558,1.558,0,0,1,2.2,0l2.372,2.371a1.557,1.557,0,0,1,0,2.2l-2.627,2.627a2.893,2.893,0,0,0-.5,3.419,18.737,18.737,0,0,1,1.557,3.753,2.9,2.9,0,0,0,2.778,2.058h3.706a1.556,1.556,0,0,1,1.555,1.555v3.354a1.556,1.556,0,0,1-1.555,1.555h-3.706a2.9,2.9,0,0,0-2.778,2.058,18.749,18.749,0,0,1-1.557,3.753,2.892,2.892,0,0,0,.5,3.418l2.627,2.627a1.557,1.557,0,0,1,0,2.2l-2.372,2.372a1.558,1.558,0,0,1-2.2,0l-2.627-2.627a2.894,2.894,0,0,0-3.419-.5,18.728,18.728,0,0,1-3.753,1.557,2.9,2.9,0,0,0-2.058,2.778v3.706a1.556,1.556,0,0,1-1.555,1.555h-3.354a1.556,1.556,0,0,1-1.555-1.555v-3.706a2.9,2.9,0,0,0-2.058-2.778,18.74,18.74,0,0,1-3.753-1.557,2.827,2.827,0,0,0-1.363-.347,2.909,2.909,0,0,0-2.056.85l-2.627,2.627a1.558,1.558,0,0,1-2.2,0l-2.372-2.372a1.557,1.557,0,0,1,0-2.2l2.627-2.627a2.893,2.893,0,0,0,.5-3.419,18.733,18.733,0,0,1-1.557-3.753,2.9,2.9,0,0,0-2.778-2.058h-3.706a1.556,1.556,0,0,1-1.555-1.555Z" transform="translate(-132.049 -645.222)" fill="#1d1c4b"/>
      <path id="Path_1141" data-name="Path 1141" d="M182.26,650.711a41.25,41.25,0,0,1,56.826,12.739,5.658,5.658,0,1,0,1.19-.628,42.591,42.591,0,0,0-58.734-13.244.67.67,0,0,0,.717,1.133Zm64.275,17.336a4.259,4.259,0,1,1-4.259-4.259A4.264,4.264,0,0,1,246.535,668.047Z" transform="translate(-140.789 -615.255)" fill="#1d1c4b"/>
      <path id="Path_1142" data-name="Path 1142" d="M156.678,760.329c0,.055,0,.11,0,.166a8.684,8.684,0,1,0,.134-1.509,41.32,41.32,0,0,1-32.467-40.3,40.882,40.882,0,0,1,8.294-24.81.67.67,0,1,0-1.071-.807A42.212,42.212,0,0,0,123,718.683,42.663,42.663,0,0,0,156.678,760.329Zm8.669-7.166a7.332,7.332,0,1,1-7.331,7.332A7.34,7.34,0,0,1,165.347,753.163Z" transform="translate(-102.083 -648.357)" fill="#1d1c4b"/>
    </g>
  </g>
</svg>
