<svg xmlns="http://www.w3.org/2000/svg" xmlns:xlink="http://www.w3.org/1999/xlink" width="165" height="165" viewBox="0 0 165 165">
  <defs>
    <clipPath id="clip-path">
      <rect id="Rectangle_699" data-name="Rectangle 699" width="165" height="165" transform="translate(1430 2654)" fill="#f15d5e"/>
    </clipPath>
  </defs>
  <g id="Mask_Group_73" data-name="Mask Group 73" transform="translate(-1430 -2654)" clip-path="url(#clip-path)">
    <g id="Group_2476" data-name="Group 2476" transform="translate(1457 2673)">
      <path id="Path_1157" data-name="Path 1157" d="M751.49,625.931a.657.657,0,0,0-.929.013l-15.516,15.962-7.806-7.806a.657.657,0,0,0-.929.929l8.278,8.278a.657.657,0,0,0,.465.192h0a.655.655,0,0,0,.467-.2l15.98-16.44A.657.657,0,0,0,751.49,625.931Z" transform="translate(-683.849 -609.556)" fill="#f15d5e"/>
      <path id="Path_1158" data-name="Path 1158" d="M702.826,689.926v-10.9a.657.657,0,0,0-.657-.657H686.395v-9.88a10.514,10.514,0,0,0,0-20.987V636.963a.657.657,0,0,0-.657-.657H653.532V626.49a4.4,4.4,0,0,0,3.661-3.181,3.186,3.186,0,0,1,5-1.625,4.5,4.5,0,0,0,6.986-5.076,3.187,3.187,0,0,1,3.091-4.253,4.5,4.5,0,0,0,2.669-8.213,3.187,3.187,0,0,1,0-5.258,4.5,4.5,0,0,0-2.669-8.214,3.186,3.186,0,0,1-3.09-4.254,4.5,4.5,0,0,0-6.987-5.076,3.187,3.187,0,0,1-5-1.625,4.5,4.5,0,0,0-8.636,0,3.187,3.187,0,0,1-5,1.625,4.5,4.5,0,0,0-6.986,5.076,3.187,3.187,0,0,1-3.091,4.253,4.5,4.5,0,0,0-2.669,8.214h0a3.187,3.187,0,0,1,0,5.258,4.5,4.5,0,0,0,2.669,8.213,3.187,3.187,0,0,1,3.091,4.254,4.5,4.5,0,0,0,6.986,5.076,3.186,3.186,0,0,1,5,1.625,4.4,4.4,0,0,0,3.661,3.181v9.816H620.668a.657.657,0,0,0-.657.657V647.5a10.514,10.514,0,0,0,0,20.987v9.88H604.237a.657.657,0,0,0-.657.657v10.9a6.915,6.915,0,1,0,1.315-.029V679.683h15.758l.016,0,.016,0h15.759v10.243a6.915,6.915,0,1,0,1.314-.029V679.026a.657.657,0,0,0-.657-.657H621.326v-9.88a10.515,10.515,0,0,0,0-20.99V637.62H685.08V647.5a10.514,10.514,0,0,0,0,20.987v9.88H669.634a.657.657,0,0,0-.657.657V689.9a6.886,6.886,0,1,0,1.315.029V679.683h15.43l.016,0,.016,0h15.758V689.9a6.886,6.886,0,1,0,1.315.029Zm-53.009-66.989a4.5,4.5,0,0,0-7.064-2.295,3.187,3.187,0,0,1-4.947-3.594,4.5,4.5,0,0,0-4.365-6.008,3.187,3.187,0,0,1-1.889-5.815,4.5,4.5,0,0,0,0-7.427,3.187,3.187,0,0,1,1.787-5.816h.1a4.5,4.5,0,0,0,4.366-6.009,3.187,3.187,0,0,1,4.946-3.593,4.5,4.5,0,0,0,7.064-2.3,3.187,3.187,0,0,1,6.114,0,4.5,4.5,0,0,0,7.064,2.3,3.187,3.187,0,0,1,4.946,3.593,4.5,4.5,0,0,0,4.366,6.009A3.187,3.187,0,0,1,674.2,597.8a4.5,4.5,0,0,0,0,7.427,3.187,3.187,0,0,1-1.889,5.815,4.5,4.5,0,0,0-4.366,6.009,3.187,3.187,0,0,1-4.946,3.594,4.5,4.5,0,0,0-7.064,2.295,3.187,3.187,0,0,1-6.114,0Zm-39.829,73.837a5.587,5.587,0,1,1-5.587-5.587A5.593,5.593,0,0,1,609.988,696.773Zm32.863,0a5.587,5.587,0,1,1-5.587-5.587A5.593,5.593,0,0,1,642.851,696.773ZM629.87,658a9.2,9.2,0,1,1-9.2-9.2A9.212,9.212,0,0,1,629.87,658Zm46.665,0a9.2,9.2,0,1,1,9.2,9.2A9.212,9.212,0,0,1,676.536,658Zm-1.479,38.778a5.587,5.587,0,1,1-5.587-5.587A5.593,5.593,0,0,1,675.057,696.773ZM702,702.36a5.587,5.587,0,1,1,5.587-5.587A5.593,5.593,0,0,1,702,702.36Z" transform="translate(-597.5 -576.485)" fill="#f15d5e"/>
    </g>
  </g>
</svg>
