<svg xmlns="http://www.w3.org/2000/svg" xmlns:xlink="http://www.w3.org/1999/xlink" width="165" height="165" viewBox="0 0 165 165">
  <defs>
    <clipPath id="clip-path">
      <rect id="Rectangle_700" data-name="Rectangle 700" width="165" height="165" transform="translate(325 2654)" fill="#fff0f2" stroke="#707070" stroke-width="1"/>
    </clipPath>
  </defs>
  <g id="Mask_Group_75" data-name="Mask Group 75" transform="translate(-325 -2654)" clip-path="url(#clip-path)">
    <g id="Group_2475" data-name="Group 2475" transform="translate(344.589 2673.589)">
      <path id="Path_1149" data-name="Path 1149" d="M-304.306,700.113a18.733,18.733,0,0,0-18.712,18.711,18.615,18.615,0,0,0,8.445,15.623v7.46a.7.7,0,0,0,.695.695h19.142a.7.7,0,0,0,.695-.695v-7.46a18.613,18.613,0,0,0,8.445-15.623A18.732,18.732,0,0,0-304.306,700.113Zm9.2,33.368a.694.694,0,0,0-.325.588v7.144h-17.753v-7.144a.694.694,0,0,0-.325-.588,17.239,17.239,0,0,1-8.121-14.656A17.342,17.342,0,0,1-304.306,701.5a17.341,17.341,0,0,1,17.321,17.322A17.238,17.238,0,0,1-295.106,733.481Z" transform="translate(367.823 -661.168)" fill="#6f8794"/>
      <path id="Path_1150" data-name="Path 1150" d="M-278.955,831.4h-19.34a.7.7,0,0,0-.695.695.7.7,0,0,0,.695.695h19.34a.7.7,0,0,0,.695-.695A.7.7,0,0,0-278.955,831.4Z" transform="translate(352.141 -746.847)" fill="#6f8794"/>
      <path id="Path_1151" data-name="Path 1151" d="M-278.955,843.453h-19.34a.7.7,0,0,0-.695.695.7.7,0,0,0,.695.695h19.34a.7.7,0,0,0,.695-.695A.7.7,0,0,0-278.955,843.453Z" transform="translate(352.141 -754.715)" fill="#6f8794"/>
      <path id="Path_1152" data-name="Path 1152" d="M-277.245,855.429l-15.467-.184h-.008a.7.7,0,0,0-.694.687.7.7,0,0,0,.687.7l15.467.185h.008a.7.7,0,0,0,.694-.686A.7.7,0,0,0-277.245,855.429Z" transform="translate(348.503 -762.411)" fill="#6f8794"/>
      <path id="Path_1153" data-name="Path 1153" d="M-285.855,736.387v-8.956h-1.993v8.956a.347.347,0,0,1-.347.347h-8.831v1.786h8.831a.347.347,0,0,1,.347.347v8.956h1.993v-8.956a.347.347,0,0,1,.347-.347h8.873v-1.786h-8.873A.347.347,0,0,1-285.855,736.387Z" transform="translate(350.86 -678.997)" fill="#6f8794"/>
      <path id="Path_1154" data-name="Path 1154" d="M-345.311,790.95h-1.442v4.991h-4.925v1.331h4.925v4.991h1.442v-4.991h4.947v-1.331h-4.947Z" transform="translate(386.527 -720.451)" fill="#6f8794"/>
      <path id="Path_1155" data-name="Path 1155" d="M-214.461,686.41H-215.9V691.4h-4.925v1.331h4.925v4.991h1.442v-4.991h4.947V691.4h-4.947Z" transform="translate(301.131 -652.225)" fill="#6f8794"/>
      <path id="Path_1156" data-name="Path 1156" d="M-331.443,641.421h-8.647a4.49,4.49,0,0,1-4.313-3.178,45.981,45.981,0,0,0-3.823-9.209,4.482,4.482,0,0,1,.79-5.293l6.13-6.131a5.848,5.848,0,0,0,1.725-4.163,5.85,5.85,0,0,0-1.725-4.163l-5.534-5.534A5.85,5.85,0,0,0-351,602.025a5.848,5.848,0,0,0-4.163,1.725l-6.131,6.13a4.482,4.482,0,0,1-5.293.79,46.011,46.011,0,0,0-9.209-3.823,4.49,4.49,0,0,1-3.178-4.313v-8.648A5.894,5.894,0,0,0-384.865,588h-7.827a5.894,5.894,0,0,0-5.887,5.887v8.648a4.49,4.49,0,0,1-3.178,4.313,46.011,46.011,0,0,0-9.209,3.823,4.483,4.483,0,0,1-5.293-.79l-6.131-6.13a5.848,5.848,0,0,0-4.163-1.725,5.85,5.85,0,0,0-4.163,1.725l-5.534,5.534a5.85,5.85,0,0,0-1.725,4.163,5.848,5.848,0,0,0,1.725,4.163l6.13,6.131a4.482,4.482,0,0,1,.79,5.293,45.985,45.985,0,0,0-3.823,9.209,4.491,4.491,0,0,1-4.313,3.178h-8.647A5.894,5.894,0,0,0-452,647.308v7.827a5.894,5.894,0,0,0,5.887,5.887h8.647a4.491,4.491,0,0,1,4.313,3.178,45.983,45.983,0,0,0,3.823,9.209,4.482,4.482,0,0,1-.79,5.293l-6.13,6.131A5.848,5.848,0,0,0-437.974,689a5.849,5.849,0,0,0,1.725,4.163l5.534,5.534a5.85,5.85,0,0,0,4.163,1.725,5.848,5.848,0,0,0,4.163-1.725l6.131-6.13a4.483,4.483,0,0,1,5.293-.789,46,46,0,0,0,9.209,3.823,4.49,4.49,0,0,1,3.178,4.313v8.647a5.894,5.894,0,0,0,5.887,5.887h7.827a5.894,5.894,0,0,0,5.887-5.887v-8.647A4.49,4.49,0,0,1-375.8,695.6a46,46,0,0,0,9.209-3.823,4.482,4.482,0,0,1,5.293.789l6.131,6.13A5.848,5.848,0,0,0-351,700.418a5.85,5.85,0,0,0,4.163-1.725l5.534-5.534A5.85,5.85,0,0,0-339.582,689a5.848,5.848,0,0,0-1.725-4.163l-6.13-6.131a4.482,4.482,0,0,1-.79-5.293A45.979,45.979,0,0,0-344.4,664.2a4.49,4.49,0,0,1,4.313-3.178h8.647a5.894,5.894,0,0,0,5.887-5.887v-7.827A5.894,5.894,0,0,0-331.443,641.421Zm4.5,13.714a4.5,4.5,0,0,1-4.5,4.5h-8.647a5.888,5.888,0,0,0-5.647,4.178,44.594,44.594,0,0,1-3.707,8.931,5.878,5.878,0,0,0,1.025,6.943l6.13,6.131a4.469,4.469,0,0,1,1.318,3.18,4.469,4.469,0,0,1-1.318,3.18l-5.534,5.534A4.47,4.47,0,0,1-351,699.029a4.469,4.469,0,0,1-3.18-1.318l-6.131-6.13a5.877,5.877,0,0,0-6.943-1.025,44.61,44.61,0,0,1-8.931,3.707,5.888,5.888,0,0,0-4.178,5.646v8.647a4.5,4.5,0,0,1-4.5,4.5h-7.827a4.5,4.5,0,0,1-4.5-4.5v-8.647a5.888,5.888,0,0,0-4.178-5.646,44.609,44.609,0,0,1-8.931-3.707,5.735,5.735,0,0,0-2.763-.7,5.918,5.918,0,0,0-4.18,1.729l-6.131,6.13a4.469,4.469,0,0,1-3.18,1.318,4.47,4.47,0,0,1-3.181-1.318l-5.534-5.534a4.469,4.469,0,0,1-1.318-3.18,4.469,4.469,0,0,1,1.318-3.18l6.13-6.131a5.878,5.878,0,0,0,1.025-6.943,44.591,44.591,0,0,1-3.707-8.931,5.888,5.888,0,0,0-5.647-4.178h-8.647a4.5,4.5,0,0,1-4.5-4.5v-7.827a4.5,4.5,0,0,1,4.5-4.5h8.647a5.888,5.888,0,0,0,5.647-4.178,44.588,44.588,0,0,1,3.707-8.931,5.878,5.878,0,0,0-1.025-6.943l-6.13-6.131a4.469,4.469,0,0,1-1.318-3.18,4.469,4.469,0,0,1,1.318-3.181l5.534-5.534a4.47,4.47,0,0,1,3.181-1.318,4.469,4.469,0,0,1,3.18,1.318l6.131,6.13a5.878,5.878,0,0,0,6.943,1.025,44.609,44.609,0,0,1,8.931-3.707,5.888,5.888,0,0,0,4.178-5.647v-8.648a4.5,4.5,0,0,1,4.5-4.5h7.827a4.5,4.5,0,0,1,4.5,4.5v8.648a5.888,5.888,0,0,0,4.178,5.647,44.61,44.61,0,0,1,8.931,3.707,5.877,5.877,0,0,0,6.943-1.025l6.131-6.13a4.469,4.469,0,0,1,3.18-1.318,4.47,4.47,0,0,1,3.181,1.318l5.534,5.534a4.469,4.469,0,0,1,1.318,3.181,4.469,4.469,0,0,1-1.318,3.18l-6.13,6.131a5.878,5.878,0,0,0-1.025,6.943,44.591,44.591,0,0,1,3.707,8.931,5.888,5.888,0,0,0,5.647,4.178h8.647a4.5,4.5,0,0,1,4.5,4.5Z" transform="translate(452 -588)" fill="#6f8794"/>
    </g>
  </g>
</svg>
