<svg xmlns="http://www.w3.org/2000/svg" xmlns:xlink="http://www.w3.org/1999/xlink" width="165" height="165" viewBox="0 0 165 165">
  <defs>
    <clipPath id="clip-path">
      <rect id="Rectangle_698" data-name="Rectangle 698" width="165" height="165" transform="translate(878 2264)" fill="#fff0f2" stroke="#707070" stroke-width="1"/>
    </clipPath>
  </defs>
  <g id="Mask_Group_77" data-name="Mask Group 77" transform="translate(-878 -2264)" clip-path="url(#clip-path)">
    <g id="Group_2471" data-name="Group 2471" transform="translate(894 2295)">
      <path id="Path_1125" data-name="Path 1125" d="M180.281,100H49.157a.657.657,0,0,0-.657.657v80.514a.657.657,0,0,0,.657.657h51.712L88.727,202.861a.657.657,0,0,0,.57.986h50.846a.657.657,0,0,0,.57-.986l-12.143-21.032h51.712a.657.657,0,0,0,.657-.657V100.657A.657.657,0,0,0,180.281,100ZM139,202.533H90.435l11.953-20.7h24.664Zm40.62-22.018H49.815v-79.2H179.624Z" transform="translate(-48.5 -100)" fill="#1e1b4c"/>
      <path id="Path_1126" data-name="Path 1126" d="M255.208,223.292a.655.655,0,0,0,.459-.187l4.282-4.181v8.963a.657.657,0,1,0,1.315,0V217.64l8.089-7.9v18.145a.657.657,0,1,0,1.314,0V209.409l7.567,5.044v13.433a.657.657,0,1,0,1.315,0v-13.5l7.741-7.119v20.616a.657.657,0,0,0,1.315,0V206.062l7.578-6.97-.012,28.794a.657.657,0,0,0,.657.658h0a.657.657,0,0,0,.657-.657l.012-30,4.594-4.226v3.9a.657.657,0,0,0,1.315,0v-5.4c0-.015,0-.029,0-.044a.658.658,0,0,0-.007-.071.611.611,0,0,0-.015-.061.645.645,0,0,0-.019-.062.6.6,0,0,0-.029-.06.492.492,0,0,0-.029-.053.634.634,0,0,0-.044-.059c-.009-.011-.016-.023-.026-.034l-.01-.009a.643.643,0,0,0-.055-.049.56.56,0,0,0-.044-.036.6.6,0,0,0-.056-.033c-.018-.01-.036-.021-.055-.03a.578.578,0,0,0-.058-.02c-.021-.007-.041-.015-.063-.02s-.037-.005-.056-.008a.686.686,0,0,0-.073-.007h-5.586a.657.657,0,1,0,0,1.315h3.887l-22.236,20.451-8.447-5.631,0,0h0l-.02-.011-.033-.017c-.019-.01-.036-.022-.056-.031l-.005,0c-.02-.008-.04-.012-.06-.019s-.033-.012-.05-.015l-.011,0a.626.626,0,0,0-.078-.008c-.015,0-.031,0-.046,0h-.005a.622.622,0,0,0-.074.007c-.016,0-.032,0-.047,0h-.009c-.014,0-.027.009-.041.012l-.024.007c-.016.005-.033.009-.048.015l-.009,0c-.017.007-.032.017-.049.026l-.015.008c-.013.007-.028.013-.041.021l-.008.005a.556.556,0,0,0-.046.037l-.022.018c-.008.007-.018.013-.026.021l0,0h0l-14.8,14.451a.657.657,0,0,0,.459,1.128Z" transform="translate(-186.836 -161.432)" fill="#1e1b4c"/>
      <path id="Path_1127" data-name="Path 1127" d="M96.657,281.123h35.727a.657.657,0,0,0,0-1.315H96.657a.657.657,0,1,0,0,1.315Z" transform="translate(-80.39 -220.718)" fill="#1e1b4c"/>
      <path id="Path_1128" data-name="Path 1128" d="M96.657,301.532h35.727a.657.657,0,0,0,0-1.315H96.657a.657.657,0,0,0,0,1.315Z" transform="translate(-80.39 -234.42)" fill="#1e1b4c"/>
      <path id="Path_1129" data-name="Path 1129" d="M255.208,146.1h48.128a.657.657,0,1,0,0-1.315H255.208a.657.657,0,1,0,0,1.315Z" transform="translate(-186.836 -130.066)" fill="#1e1b4c"/>
      <path id="Path_1130" data-name="Path 1130" d="M255.208,166.506h48.128a.657.657,0,1,0,0-1.315H255.208a.657.657,0,1,0,0,1.315Z" transform="translate(-186.836 -143.767)" fill="#1e1b4c"/>
      <path id="Path_1131" data-name="Path 1131" d="M114.97,181.824A18.521,18.521,0,1,0,96.449,163.3,18.541,18.541,0,0,0,114.97,181.824Zm0-1.315a17.163,17.163,0,0,1-4.51-.6l4.994-16.093h16.709A17.223,17.223,0,0,1,114.97,180.51ZM132.155,162.5H115.627V146.114A17.226,17.226,0,0,1,132.155,162.5Zm-17.843-16.385v16.942l-5.108,16.457a17.2,17.2,0,0,1,5.108-33.4Z" transform="translate(-80.692 -130.066)" fill="#1e1b4c"/>
    </g>
  </g>
</svg>
