<svg xmlns="http://www.w3.org/2000/svg" xmlns:xlink="http://www.w3.org/1999/xlink" width="115" height="115" viewBox="0 0 115 115">
  <defs>
    <clipPath id="clip-path">
      <rect id="Rectangle_615" data-name="Rectangle 615" width="115" height="115" transform="translate(-542 1828)" fill="#fff" stroke="#707070" stroke-width="1"/>
    </clipPath>
  </defs>
  <g id="home-icon-4" transform="translate(542 -1828)" clip-path="url(#clip-path)">
    <g id="Group_2087" data-name="Group 2087" transform="translate(-522 1839)">
      <g id="Group_2071" data-name="Group 2071" transform="translate(12.615 9.806)">
        <g id="Group_2070" data-name="Group 2070">
          <path id="Path_921" data-name="Path 921" d="M-736.606,632.875h-7.454l-.017-.439c-.01-.257-.016-.516-.016-.77a20.761,20.761,0,0,1,20.737-20.737q.385,0,.769.015l.439.017v7.454l-.493-.039c-.205-.016-.426-.023-.715-.023a13.329,13.329,0,0,0-13.314,13.314c0,.289.007.51.024.715Zm-6.571-.914h5.6c0-.092,0-.189,0-.294a14.244,14.244,0,0,1,14.228-14.227l.294,0v-5.6l-.294,0a19.846,19.846,0,0,0-19.824,19.824Q-743.179,631.814-743.177,631.962Z" transform="translate(744.093 -610.93)" fill="#6f8794"/>
        </g>
      </g>
      <g id="Group_2073" data-name="Group 2073" transform="translate(17.389 14.673)">
        <g id="Group_2072" data-name="Group 2072">
          <path id="Path_922" data-name="Path 922" d="M-702.453,673.717a20.633,20.633,0,0,1-14.409-5.822,20.631,20.631,0,0,1-6.313-14.148l-.017-.473h7.427l.023.433a13.3,13.3,0,0,0,13.289,12.587,13.329,13.329,0,0,0,13.314-13.314,13.3,13.3,0,0,0-12.587-13.29l-.432-.023V632.24l.474.017a20.63,20.63,0,0,1,14.148,6.313,20.632,20.632,0,0,1,5.822,14.409A20.761,20.761,0,0,1-702.453,673.717Zm-19.786-19.529a19.717,19.717,0,0,0,6.012,13.051,19.724,19.724,0,0,0,13.774,5.565,19.846,19.846,0,0,0,19.824-19.824,19.724,19.724,0,0,0-5.565-13.774,19.717,19.717,0,0,0-13.05-6.012v5.614a14.214,14.214,0,0,1,13.02,14.172,14.244,14.244,0,0,1-14.228,14.227,14.214,14.214,0,0,1-14.172-13.02Z" transform="translate(723.192 -632.24)" fill="#6f8794"/>
        </g>
      </g>
      <g id="Group_2075" data-name="Group 2075">
        <g id="Group_2074" data-name="Group 2074">
          <path id="Path_923" data-name="Path 923" d="M-752.4,660.279h-46.923V568h74.267v64.935h-.914V568.914h-72.44v90.452H-752.4Z" transform="translate(799.321 -568)" fill="#6f8794"/>
        </g>
      </g>
      <g id="Group_2077" data-name="Group 2077" transform="translate(46.205 64.217)">
        <g id="Group_2076" data-name="Group 2076">
          <path id="Path_924" data-name="Path 924" d="M-596.122,876.748h-.914V849.143h27.606v.914h-26.692Z" transform="translate(597.036 -849.143)" fill="#6f8794"/>
        </g>
      </g>
      <g id="Group_2079" data-name="Group 2079" transform="translate(10.377 64.478)">
        <g id="Group_2078" data-name="Group 2078">
          <rect id="Rectangle_611" data-name="Rectangle 611" width="26.627" height="0.914" fill="#6f8794"/>
        </g>
      </g>
      <g id="Group_2081" data-name="Group 2081" transform="translate(10.377 72.57)">
        <g id="Group_2080" data-name="Group 2080">
          <rect id="Rectangle_612" data-name="Rectangle 612" width="26.627" height="0.914" fill="#6f8794"/>
        </g>
      </g>
      <g id="Group_2083" data-name="Group 2083" transform="translate(10.377 80.924)">
        <g id="Group_2082" data-name="Group 2082">
          <rect id="Rectangle_613" data-name="Rectangle 613" width="26.627" height="0.914" fill="#6f8794"/>
        </g>
      </g>
      <g id="Group_2084" data-name="Group 2084" transform="translate(30.792 27.251)">
        <path id="Path_925" data-name="Path 925" d="M-648.283,688.238l-8.682,14.787h1.379l8.661-14.787Z" transform="translate(658.689 -688.026)" fill="#6f8794"/>
        <path id="Path_926" data-name="Path 926" d="M-663.69,692.478a2.854,2.854,0,0,0,2.1.824,2.882,2.882,0,0,0,2.12-.824,2.964,2.964,0,0,0,.824-2.184,2.937,2.937,0,0,0-.824-2.163,2.883,2.883,0,0,0-2.12-.824,2.856,2.856,0,0,0-2.1.824,2.937,2.937,0,0,0-.824,2.163A2.963,2.963,0,0,0-663.69,692.478Zm.768-3.765a1.693,1.693,0,0,1,1.331-.562,1.711,1.711,0,0,1,1.341.573,2.3,2.3,0,0,1,.5,1.571,2.331,2.331,0,0,1-.5,1.592,1.711,1.711,0,0,1-1.341.572,1.679,1.679,0,0,1-1.331-.573,2.364,2.364,0,0,1-.493-1.591A2.322,2.322,0,0,1-662.922,688.713Z" transform="translate(664.514 -687.307)" fill="#6f8794"/>
        <path id="Path_927" data-name="Path 927" d="M-625.942,728.484a2.856,2.856,0,0,0-2.1-.824,2.855,2.855,0,0,0-2.1.824,2.965,2.965,0,0,0-.824,2.184,2.964,2.964,0,0,0,.824,2.184,2.855,2.855,0,0,0,2.1.824,2.855,2.855,0,0,0,2.1-.824,2.965,2.965,0,0,0,.824-2.184A2.966,2.966,0,0,0-625.942,728.484Zm-.768,3.765a1.692,1.692,0,0,1-1.33.562,1.709,1.709,0,0,1-1.341-.573,2.3,2.3,0,0,1-.5-1.57,2.3,2.3,0,0,1,.5-1.571,1.71,1.71,0,0,1,1.341-.573,1.692,1.692,0,0,1,1.33.562,2.32,2.32,0,0,1,.493,1.581A2.32,2.32,0,0,1-626.711,732.249Z" transform="translate(638.627 -718.443)" fill="#6f8794"/>
      </g>
      <g id="Group_2086" data-name="Group 2086" transform="translate(46.339 64.351)">
        <g id="Group_2085" data-name="Group 2085" transform="translate(0)">
          <rect id="Rectangle_614" data-name="Rectangle 614" width="38.394" height="0.914" transform="translate(0 27.149) rotate(-45)" fill="#6f8794"/>
        </g>
      </g>
    </g>
  </g>
</svg>
