<svg xmlns="http://www.w3.org/2000/svg" xmlns:xlink="http://www.w3.org/1999/xlink" width="115" height="115" viewBox="0 0 115 115">
  <defs>
    <clipPath id="clip-path">
      <rect id="Rectangle_727" data-name="Rectangle 727" width="115" height="115" transform="translate(-542 1707)" fill="#f15d5e" stroke="#707070" stroke-width="1"/>
    </clipPath>
  </defs>
  <g id="home-icon-3" transform="translate(542 -1707)" clip-path="url(#clip-path)">
    <g id="Group_2521" data-name="Group 2521" transform="translate(-513 1736)">
      <g id="Group_2519" data-name="Group 2519" transform="translate(17.618 17.618)">
        <path id="Path_1235" data-name="Path 1235" d="M-672.542,225.154a10.546,10.546,0,0,1-10.534-10.534,10.546,10.546,0,0,1,10.534-10.534,10.546,10.546,0,0,1,10.534,10.534A10.546,10.546,0,0,1-672.542,225.154Zm0-20.08a9.557,9.557,0,0,0-9.546,9.546,9.557,9.557,0,0,0,9.546,9.546A9.557,9.557,0,0,0-663,214.62,9.557,9.557,0,0,0-672.542,205.074Z" transform="translate(683.076 -204.086)" fill="#f15d5e"/>
      </g>
      <g id="Group_2520" data-name="Group 2520">
        <path id="Path_1236" data-name="Path 1236" d="M-730.326,183.257h-3.462a2.794,2.794,0,0,1-2.791-2.791v-3.825a1.8,1.8,0,0,0-1.272-1.729,20.53,20.53,0,0,1-4.111-1.706,1.8,1.8,0,0,0-2.119.317l-2.712,2.712a2.773,2.773,0,0,1-1.973.817,2.773,2.773,0,0,1-1.974-.817l-2.448-2.448a2.794,2.794,0,0,1,0-3.947l2.712-2.712a1.8,1.8,0,0,0,.318-2.119,20.56,20.56,0,0,1-1.707-4.111,1.8,1.8,0,0,0-1.728-1.272h-3.825a2.794,2.794,0,0,1-2.791-2.791v-3.462a2.794,2.794,0,0,1,2.791-2.791h3.825a1.8,1.8,0,0,0,1.728-1.272,20.538,20.538,0,0,1,1.707-4.111,1.8,1.8,0,0,0-.318-2.119l-2.712-2.712a2.794,2.794,0,0,1,0-3.947l2.448-2.448a2.773,2.773,0,0,1,1.974-.818,2.774,2.774,0,0,1,1.973.817l2.712,2.712a1.8,1.8,0,0,0,2.119.317,20.552,20.552,0,0,1,4.111-1.706,1.8,1.8,0,0,0,1.272-1.728v-3.825a2.794,2.794,0,0,1,2.791-2.791h3.462a2.794,2.794,0,0,1,2.791,2.791v3.825a1.8,1.8,0,0,0,1.272,1.728A20.565,20.565,0,0,1-722.152,137a1.794,1.794,0,0,0,2.119-.317l2.712-2.712a2.773,2.773,0,0,1,1.974-.818,2.772,2.772,0,0,1,1.973.818l2.448,2.448a2.794,2.794,0,0,1,0,3.947l-2.712,2.712a1.794,1.794,0,0,0-.317,2.119,20.556,20.556,0,0,1,1.706,4.111,1.8,1.8,0,0,0,1.728,1.272h3.825a2.794,2.794,0,0,1,2.791,2.791v3.462a2.794,2.794,0,0,1-2.791,2.791h-3.825a1.8,1.8,0,0,0-1.728,1.272,20.564,20.564,0,0,1-1.706,4.111,1.8,1.8,0,0,0,.317,2.119l2.712,2.712a2.794,2.794,0,0,1,0,3.947l-2.448,2.448a2.772,2.772,0,0,1-1.973.817,2.773,2.773,0,0,1-1.974-.817l-2.712-2.712a1.8,1.8,0,0,0-2.119-.317,20.553,20.553,0,0,1-4.111,1.706,1.8,1.8,0,0,0-1.272,1.729v3.825A2.794,2.794,0,0,1-730.326,183.257ZM-742.8,172.006a2.725,2.725,0,0,1,1.312.334,19.554,19.554,0,0,0,3.913,1.624,2.792,2.792,0,0,1,1.982,2.677v3.825a1.805,1.805,0,0,0,1.8,1.8h3.462a1.8,1.8,0,0,0,1.8-1.8v-3.825a2.792,2.792,0,0,1,1.982-2.677,19.558,19.558,0,0,0,3.913-1.624,2.788,2.788,0,0,1,3.293.485l2.712,2.712a1.791,1.791,0,0,0,1.275.528,1.79,1.79,0,0,0,1.275-.528l2.448-2.448a1.791,1.791,0,0,0,.528-1.275,1.79,1.79,0,0,0-.528-1.275l-2.712-2.712a2.787,2.787,0,0,1-.485-3.293,19.562,19.562,0,0,0,1.624-3.913,2.792,2.792,0,0,1,2.677-1.983h3.825a1.8,1.8,0,0,0,1.8-1.8v-3.462a1.8,1.8,0,0,0-1.8-1.8h-3.825a2.792,2.792,0,0,1-2.677-1.982,19.556,19.556,0,0,0-1.624-3.913,2.788,2.788,0,0,1,.485-3.293l2.712-2.712a1.8,1.8,0,0,0,0-2.55l-2.448-2.448a1.791,1.791,0,0,0-1.275-.528,1.791,1.791,0,0,0-1.275.528l-2.712,2.712a2.788,2.788,0,0,1-3.293.485,19.56,19.56,0,0,0-3.913-1.624,2.792,2.792,0,0,1-1.982-2.677v-3.825a1.8,1.8,0,0,0-1.8-1.8h-3.462a1.805,1.805,0,0,0-1.8,1.8v3.825a2.792,2.792,0,0,1-1.982,2.677,19.559,19.559,0,0,0-3.913,1.624,2.788,2.788,0,0,1-3.293-.485l-2.712-2.712a1.792,1.792,0,0,0-1.275-.528,1.792,1.792,0,0,0-1.275.528l-2.448,2.448a1.791,1.791,0,0,0-.528,1.275,1.792,1.792,0,0,0,.528,1.275l2.712,2.712a2.787,2.787,0,0,1,.485,3.293,19.58,19.58,0,0,0-1.624,3.913,2.792,2.792,0,0,1-2.677,1.982h-3.825a1.8,1.8,0,0,0-1.8,1.8v3.462a1.8,1.8,0,0,0,1.8,1.8h3.825a2.792,2.792,0,0,1,2.677,1.983,19.561,19.561,0,0,0,1.624,3.913,2.787,2.787,0,0,1-.485,3.293l-2.712,2.712a1.791,1.791,0,0,0-.528,1.275,1.792,1.792,0,0,0,.528,1.275l2.448,2.448a1.791,1.791,0,0,0,1.275.528,1.791,1.791,0,0,0,1.275-.528l2.712-2.712A2.8,2.8,0,0,1-742.8,172.006Z" transform="translate(760.209 -126.953)" fill="#f15d5e"/>
      </g>
    </g>
    <g id="Group_2526" data-name="Group 2526" transform="translate(-534 1722)">
      <g id="Group_2522" data-name="Group 2522" transform="translate(5.732)">
        <path id="Path_1237" data-name="Path 1237" d="M-829.9,106.225c0-.079,0-.159,0-.238a44.881,44.881,0,0,1,44.83-44.83,44.566,44.566,0,0,1,25.544,7.984,44.77,44.77,0,0,1,16.206,20.483l-.92.361a43.784,43.784,0,0,0-15.85-20.032,43.583,43.583,0,0,0-24.98-7.808,43.892,43.892,0,0,0-43.842,43.842c0,.068,0,.137,0,.205Z" transform="translate(829.904 -61.157)" fill="#f15d5e"/>
      </g>
      <g id="Group_2523" data-name="Group 2523" transform="translate(7.253 40.982)">
        <path id="Path_1238" data-name="Path 1238" d="M-781.587,285.407a44.573,44.573,0,0,1-25.446-7.916,44.775,44.775,0,0,1-16.215-20.327l.918-.366a43.792,43.792,0,0,0,15.858,19.88,43.592,43.592,0,0,0,24.885,7.741,43.891,43.891,0,0,0,43.842-43.842h.988A44.881,44.881,0,0,1-781.587,285.407Z" transform="translate(823.247 -240.577)" fill="#f15d5e"/>
      </g>
      <g id="Group_2524" data-name="Group 2524" transform="translate(85.832 40.187)">
        <path id="Path_1239" data-name="Path 1239" d="M-466.245,245.4l-5.447-6.922-6.921,5.447-.611-.777,7.7-6.058,6.058,7.7Z" transform="translate(479.225 -237.094)" fill="#f15d5e"/>
      </g>
      <g id="Group_2525" data-name="Group 2525" transform="translate(0 37.533)">
        <path id="Path_1240" data-name="Path 1240" d="M-848.942,233.784l-6.058-7.7.776-.611,5.447,6.922,6.921-5.447.611.777Z" transform="translate(855 -225.475)" fill="#f15d5e"/>
      </g>
    </g>
  </g>
</svg>
