<svg xmlns="http://www.w3.org/2000/svg" width="40.078" height="29.134" viewBox="0 0 40.078 29.134">
  <path id="home-quote-alt-left" d="M11.91,17.522c-.448,0-.572.937-1,1,.139-.465-.228-1.575,0-2,.228-.617.645-.46,1-1a14.325,14.325,0,0,1,1-2c.4-.485,1.564-.6,2-1a6.665,6.665,0,0,1,1-1,16.809,16.809,0,0,1,2-1h1l1-1-1-3h-2c-.382.1-.47-.135-1,0a18.561,18.561,0,0,0-2,1,12.57,12.57,0,0,0-2,1c-.689.437-1.3.415-2,1a15.885,15.885,0,0,0-2,2c-.661.717-1.492,1.142-2,2-.588.818-.579,2.113-1,3a27.226,27.226,0,0,0-1,3,18.793,18.793,0,0,0-1,4,34.644,34.644,0,0,0,0,4c.029.409-.04.726,0,1h0a8.9,8.9,0,0,0,10,7c4.688-.664,8.333-4.277,8-9S16.645,17.521,11.91,17.522Zm22,0c-.448,0-.572.937-1,1,.139-.465-.228-1.575,0-2,.228-.617.645-.46,1-1,.3-.583,1.615-1.5,2-2a8.124,8.124,0,0,1,1-1,6.666,6.666,0,0,1,1-1,16.808,16.808,0,0,1,2-1h1l1-1-1-3h-1c-.382.1-1.47-.135-2,0a18.561,18.561,0,0,0-2,1,12.513,12.513,0,0,0-2,1c-.689.437-1.3.415-2,1a15.975,15.975,0,0,0-2,2c-.661.717-1.492,1.142-2,2-.588.818-.579,2.113-1,3a27.226,27.226,0,0,0-1,3,18.794,18.794,0,0,0-1,4,34.644,34.644,0,0,0,0,4c.029.409-.04.726,0,1h0a8.9,8.9,0,0,0,10,7c4.688-.664,8.333-4.277,8-9S38.645,17.522,33.91,17.522Z" transform="translate(-2.853 -6.479)" fill="#cac5f0"/>
</svg>
