<svg width="20" height="24" viewBox="0 0 20 24" fill="none" xmlns="http://www.w3.org/2000/svg">
<path d="M9 0.5C4.822 0.5 0.5 3.6795 0.5 9C0.5 14.6425 8.3135 22.521 8.6465 22.8535C8.74 22.9475 8.8675 23 9 23C9.1325 23 9.26 22.9475 9.3535 22.8535C9.4485 22.7585 10.155 22.0465 11.114 20.948C10.1285 20.122 9.5 18.8835 9.5 17.5C9.5 15.019 11.5185 13 14 13C14.81 13 15.5685 13.218 16.226 13.594C16.9895 12.0255 17.5 10.44 17.5 9C17.5 3.6795 13.178 0.5 9 0.5ZM9 12C7.3455 12 6 10.6545 6 9C6 7.3455 7.3455 6 9 6C10.6545 6 12 7.3455 12 9C12 10.6545 10.6545 12 9 12Z" fill="black"/>
<path d="M19.707 21.793L17.0785 19.164C17.347 18.669 17.5 18.102 17.5 17.5C17.5 15.5705 15.93 14 14 14C12.07 14 10.5 15.5705 10.5 17.5C10.5 19.4295 12.07 21 14 21C14.602 21 15.169 20.847 15.6645 20.578L18.293 23.207L19.707 21.793ZM11.5 17.5C11.5 16.1215 12.6215 15 14 15C15.3785 15 16.5 16.1215 16.5 17.5C16.5 18.8785 15.3785 20 14 20C12.6215 20 11.5 18.8785 11.5 17.5Z" fill="black"/>
</svg>
