<svg width="24" height="24" viewBox="0 0 24 24" fill="none" xmlns="http://www.w3.org/2000/svg">
<path d="M22.9941 10.4999C22.8789 10.4998 22.7672 10.4599 22.6781 10.3869L11.9941 1.64592L1.31057 10.3869C1.20768 10.4685 1.07685 10.5063 0.946333 10.4922C0.81581 10.4781 0.696066 10.4132 0.612956 10.3116C0.529845 10.21 0.490037 10.0798 0.502126 9.94903C0.514215 9.81831 0.577231 9.69758 0.677568 9.61292L11.6776 0.612924C11.7669 0.539896 11.8787 0.5 11.9941 0.5C12.1094 0.5 12.2213 0.539896 12.3106 0.612924L23.3106 9.61292C23.3904 9.67823 23.4481 9.76662 23.4757 9.86598C23.5033 9.96535 23.4996 10.0708 23.4649 10.168C23.4302 10.2651 23.3664 10.3491 23.2821 10.4086C23.1978 10.468 23.0972 10.4999 22.9941 10.4999Z" fill="black"/>
<path d="M13.4941 16.817C13.4941 13.489 16.2906 11.5 18.9941 11.5C19.677 11.5017 20.3542 11.6246 20.9941 11.863V10.3L11.9941 2.93799L2.99414 10.3V21.5C2.99414 21.7652 3.0995 22.0196 3.28703 22.2071C3.47457 22.3946 3.72892 22.5 3.99414 22.5H16.4441C15.0966 20.9615 13.4941 18.729 13.4941 16.817Z" fill="black"/>
<path d="M18.9941 12.5C16.7821 12.5 14.4941 14.1145 14.4941 16.817C14.4941 19.3245 18.2236 22.956 18.6491 23.362C18.7422 23.4508 18.8658 23.5003 18.9944 23.5003C19.123 23.5003 19.2466 23.4508 19.3396 23.362C19.7646 22.956 23.4941 19.3245 23.4941 16.817C23.4941 14.1145 21.2061 12.5 18.9941 12.5ZM18.9941 18.5C18.6975 18.5 18.4075 18.412 18.1608 18.2472C17.9141 18.0824 17.7219 17.8481 17.6083 17.574C17.4948 17.2999 17.4651 16.9983 17.523 16.7074C17.5808 16.4164 17.7237 16.1491 17.9335 15.9393C18.1433 15.7296 18.4105 15.5867 18.7015 15.5288C18.9925 15.4709 19.2941 15.5006 19.5682 15.6142C19.8423 15.7277 20.0765 15.92 20.2413 16.1666C20.4062 16.4133 20.4941 16.7033 20.4941 17C20.4941 17.3978 20.3361 17.7794 20.0548 18.0607C19.7735 18.342 19.392 18.5 18.9941 18.5Z" fill="black"/>
</svg>
