<svg xmlns="http://www.w3.org/2000/svg" width="15.753" height="15.752" viewBox="0 0 15.753 15.752">
  <g id="arrow-down-short" transform="translate(-10.123 -10.125)">
    <path id="Path_1345" data-name="Path 1345" d="M10.454,17.2a1.125,1.125,0,0,1,1.593,0L18,23.159,23.954,17.2A1.126,1.126,0,1,1,25.547,18.8l-6.75,6.75a1.125,1.125,0,0,1-1.593,0l-6.75-6.75a1.125,1.125,0,0,1,0-1.593Z" fill="#f15d5e" fill-rule="evenodd"/>
    <path id="Path_1346" data-name="Path 1346" d="M18,10.125a1.125,1.125,0,0,1,1.125,1.125V22.5a1.125,1.125,0,0,1-2.25,0V11.25A1.125,1.125,0,0,1,18,10.125Z" fill="#f15d5e" fill-rule="evenodd"/>
  </g>
</svg>
