<svg width="18" height="18" viewBox="0 0 18 18" fill="none" xmlns="http://www.w3.org/2000/svg">
<path d="M17.125 0.375C16.625 -0.125 15.875 -0.125 15.375 0.375L8.75 7L2.125 0.375C1.625 -0.125 0.875 -0.125 0.375 0.375C-0.125 0.875 -0.125 1.625 0.375 2.125L7 8.75L0.375 15.375C-0.125 15.875 -0.125 16.625 0.375 17.125C0.625 17.375 0.875 17.5 1.25 17.5C1.625 17.5 1.875 17.375 2.125 17.125L8.75 10.5L15.375 17.125C15.625 17.375 16 17.5 16.25 17.5C16.5 17.5 16.875 17.375 17.125 17.125C17.625 16.625 17.625 15.875 17.125 15.375L10.5 8.75L17.125 2.125C17.625 1.625 17.625 0.875 17.125 0.375Z" fill="white"/>
</svg>
