<svg width="228" height="42" viewBox="0 0 228 42" fill="none"
    xmlns="http://www.w3.org/2000/svg">
    <path d="M15.047 8.07352C11.6543 8.07352 8.82712 9.53424 6.8952 12.0316V8.63896H0.0156801V41.1046H6.8952V29.5602C8.82712 32.1047 11.6543 33.5654 15.047 33.5654C21.5495 33.5654 26.2615 28.288 26.2615 20.7959C26.2615 13.351 21.5495 8.07352 15.047 8.07352ZM13.0679 27.7697C9.7224 27.7697 7.27216 25.3194 6.8952 21.7383V19.8535C7.27216 16.3195 9.7224 13.8693 13.0679 13.8693C16.8846 13.8693 19.5705 16.7436 19.5705 20.7959C19.5705 24.8954 16.8846 27.7697 13.0679 27.7697ZM38.0018 13.1625V8.63896H31.1222V33H38.0018V21.3614C38.0018 16.7907 41.253 13.8693 46.342 13.8693V8.07352C42.6195 8.07352 39.6038 10.0054 38.0018 13.1625ZM61.808 27.487C58.9337 27.487 56.8133 25.6964 56.0123 23.0577H73.588C73.588 13.8693 69.1116 8.07352 61.4782 8.07352C54.3631 8.07352 48.9443 13.3981 48.9443 20.7488C48.9443 28.2409 54.5987 33.5654 61.8552 33.5654C65.4363 33.5654 69.63 32.0576 71.7975 29.7958L67.4153 25.3194C66.096 26.5917 63.74 27.487 61.808 27.487ZM61.7609 14.152C64.541 14.152 66.3316 15.707 66.9912 18.1101H56.1065C57.0018 15.6598 59.1693 14.152 61.7609 14.152Z" fill="black"/>
    <path d="M92.3311 8.07352C89.2212 8.07352 86.5354 9.48712 85.0275 11.6075V0.0631179H78.148V33H85.0275V18.5813C85.0275 15.9426 87.2422 13.8693 90.1165 13.8693C92.8494 13.8693 94.7342 15.9426 94.7342 18.9582V33H101.378V17.4975C101.378 11.9845 97.6086 8.07352 92.3311 8.07352ZM119.155 33.5654C126.364 33.5654 132.395 27.7226 132.395 20.7959C132.395 13.8693 126.364 8.07352 119.155 8.07352C111.898 8.07352 105.82 13.8693 105.82 20.7959C105.82 27.7226 111.898 33.5654 119.155 33.5654ZM119.155 27.7697C115.479 27.7697 112.416 24.5655 112.416 20.7959C112.416 17.0263 115.479 13.8693 119.155 13.8693C122.783 13.8693 125.846 17.0263 125.846 20.7959C125.846 24.5655 122.783 27.7697 119.155 27.7697ZM166.029 8.07352C162.401 8.07352 159.385 9.81696 158.113 12.5028C156.605 9.76984 153.731 8.07352 150.385 8.07352C147.369 8.07352 144.966 9.53424 143.788 11.8431V8.63896H136.909V33H143.788V18.2986C143.788 15.707 145.72 13.8693 148.5 13.8693C150.998 13.8693 152.788 15.8483 152.788 18.6755V33.0471H159.385V18.2986C159.385 15.707 161.364 13.8693 164.097 13.8693C166.642 13.8693 168.432 15.8483 168.432 18.6755V33.0471H175.029V17.4975C175.029 11.9845 171.118 8.07352 166.029 8.07352ZM192.308 27.487C189.434 27.487 187.314 25.6964 186.513 23.0577H204.088C204.088 13.8693 199.612 8.07352 191.979 8.07352C184.863 8.07352 179.445 13.3981 179.445 20.7488C179.445 28.2409 185.099 33.5654 192.355 33.5654C195.937 33.5654 200.13 32.0576 202.298 29.7958L197.916 25.3194C196.596 26.5917 194.24 27.487 192.308 27.487ZM192.261 14.152C195.041 14.152 196.832 15.707 197.492 18.1101H186.607C187.502 15.6598 189.67 14.152 192.261 14.152ZM217.884 33.5654C223.868 33.5654 227.779 30.5026 227.779 25.6964C227.779 20.3718 223.114 18.9582 218.92 17.8745C215.622 16.9792 214.633 16.6022 214.633 15.2829C214.633 14.4347 215.811 13.8222 217.507 13.8222C219.58 13.8222 222.125 14.6232 224.339 15.9897L227.119 11.0892C224.434 9.29864 220.994 8.07352 217.507 8.07352C211.758 8.07352 207.942 11.3719 207.989 15.9897C208.036 20.7959 211.9 22.1624 216.894 23.3875C219.392 24.0472 221.182 24.5184 221.182 26.0262C221.182 27.11 219.863 27.8639 218.025 27.8639C214.774 27.8639 212.041 26.6859 209.873 25.131L206.905 29.8901C209.826 32.2461 213.973 33.5654 217.884 33.5654Z" fill="#8B8B8B"/>
</svg>
