<svg width="20" height="21" viewBox="0 0 20 21" fill="none" xmlns="http://www.w3.org/2000/svg">
<path d="M10 9.38687C12.7614 9.38687 15 7.44213 15 5.04317C15 2.6442 12.7614 0.699463 10 0.699463C7.23858 0.699463 5 2.6442 5 5.04317C5 7.44213 7.23858 9.38687 10 9.38687Z" fill="#212121"/>
<path d="M10 11.2485C7.34876 11.2512 4.80698 12.1673 2.93227 13.7959C1.05756 15.4246 0.0030248 17.6327 0 19.9359C0 20.1005 0.0752549 20.2583 0.209209 20.3747C0.343164 20.4911 0.524845 20.5565 0.714286 20.5565H19.2857C19.4752 20.5565 19.6568 20.4911 19.7908 20.3747C19.9247 20.2583 20 20.1005 20 19.9359C19.997 17.6327 18.9424 15.4246 17.0677 13.7959C15.193 12.1673 12.6512 11.2512 10 11.2485Z" fill="#212121"/>
</svg>
