<svg xmlns="http://www.w3.org/2000/svg" xmlns:xlink="http://www.w3.org/1999/xlink" width="76" height="76" viewBox="13 13 76 76">
  <g id="Button_-_Arrow" data-name="Button - Arrow" transform="translate(13 13)">
    <g transform="matrix(1, 0, 0, 1, -13, -13)">
      <g id="Path_807-2" data-name="Path 807" transform="translate(13 13)" fill="none" stroke-linecap="round">
        <path d="M38,0A38,38,0,1,1,0,38,38,38,0,0,1,38,0Z" stroke="none"/>
        <path d="M 38 5 C 33.54282760620117 5 29.22163009643555 5.871826171875 25.15644454956055 7.591255187988281 C 21.2274284362793 9.253082275390625 17.69775772094727 11.63320159912109 14.66547012329102 14.66547012329102 C 11.63320159912109 17.69775772094727 9.253082275390625 21.2274284362793 7.591255187988281 25.15644454956055 C 5.871826171875 29.22163009643555 5 33.54282760620117 5 38 C 5 42.45717239379883 5.871826171875 46.77837371826172 7.591255187988281 50.84355926513672 C 9.253082275390625 54.7725715637207 11.63320159912109 58.30224227905273 14.66547012329102 61.33452987670898 C 17.69775772094727 64.36679840087891 21.2274284362793 66.74691772460938 25.15644454956055 68.40874481201172 C 29.22163009643555 70.128173828125 33.54282760620117 71 38 71 C 42.45717239379883 71 46.77837371826172 70.128173828125 50.84355926513672 68.40874481201172 C 54.7725715637207 66.74691772460938 58.30224227905273 64.36679840087891 61.33452987670898 61.33452987670898 C 64.36679840087891 58.30224227905273 66.74691772460938 54.7725715637207 68.40874481201172 50.84355926513672 C 70.128173828125 46.77837371826172 71 42.45717239379883 71 38 C 71 33.54282760620117 70.128173828125 29.22163009643555 68.40874481201172 25.15644454956055 C 66.74691772460938 21.2274284362793 64.36679840087891 17.69775772094727 61.33452987670898 14.66547012329102 C 58.30224227905273 11.63320159912109 54.7725715637207 9.253082275390625 50.84355926513672 7.591255187988281 C 46.77837371826172 5.871826171875 42.45717239379883 5 38 5 M 38 0 C 58.98681640625 0 76 17.01318740844727 76 38 C 76 58.98681640625 58.98681640625 76 38 76 C 17.01318740844727 76 0 58.98681640625 0 38 C 0 17.01318740844727 17.01318740844727 0 38 0 Z" stroke="none" fill="#fff"/>
      </g>
    </g>
    <g id="Group_2" data-name="Group 2" transform="translate(23.504 25.438)">
      <g transform="matrix(1, 0, 0, 1, -36.5, -38.44)">
        <line id="Line_1-2" data-name="Line 1" x2="27.029" transform="translate(36.5 50.11)" fill="none" stroke="#fff" stroke-linecap="round" stroke-width="5"/>
      </g>
      <line id="Line_2" data-name="Line 2" x2="11.671" y2="11.671" transform="translate(15.357)" fill="none" stroke="#fff" stroke-linecap="round" stroke-width="5"/>
      <line id="Line_3" data-name="Line 3" y1="11.671" x2="11.671" transform="translate(15.357 11.671)" fill="none" stroke="#fff" stroke-linecap="round" stroke-width="5"/>
    </g>
  </g>
</svg>
