<svg width="24" height="24" viewBox="0 0 24 24" fill="none" xmlns="http://www.w3.org/2000/svg">
<path d="M12 2C7.58 2 4 2.5 4 6V16C4 16.88 4.39 17.67 5 18.22V20C5 20.55 5.45 21 6 21H7C7.55 21 8 20.55 8 20V19H16V20C16 20.55 16.45 21 17 21H18C18.55 21 19 20.55 19 20V18.22C19.61 17.67 20 16.88 20 16V6C20 2.5 16.42 2 12 2ZM17.66 4.99H6.34C6.89 4.46 8.31 4 12 4C15.69 4 17.11 4.46 17.66 4.99ZM18 6.99V10H6V6.99H18ZM17.66 16.73L17.37 17H6.63L6.34 16.73C6.23425 16.6399 6.14915 16.528 6.09049 16.402C6.03182 16.2761 6.00096 16.139 6 16V12H18V16C18 16.37 17.79 16.62 17.66 16.73Z" fill="black"/>
<path d="M8.5 16C8.89782 16 9.27936 15.842 9.56066 15.5607C9.84196 15.2794 10 14.8978 10 14.5C10 14.1022 9.84196 13.7206 9.56066 13.4393C9.27936 13.158 8.89782 13 8.5 13C8.10218 13 7.72064 13.158 7.43934 13.4393C7.15804 13.7206 7 14.1022 7 14.5C7 14.8978 7.15804 15.2794 7.43934 15.5607C7.72064 15.842 8.10218 16 8.5 16Z" fill="black"/>
<path d="M15.5 16C15.8978 16 16.2794 15.842 16.5607 15.5607C16.842 15.2794 17 14.8978 17 14.5C17 14.1022 16.842 13.7206 16.5607 13.4393C16.2794 13.158 15.8978 13 15.5 13C15.1022 13 14.7206 13.158 14.4393 13.4393C14.158 13.7206 14 14.1022 14 14.5C14 14.8978 14.158 15.2794 14.4393 15.5607C14.7206 15.842 15.1022 16 15.5 16Z" fill="black"/>
</svg>
