<svg width="55" height="44" viewBox="0 0 55 44" fill="none" xmlns="http://www.w3.org/2000/svg">
<path d="M0.94181 22.9995H7.53448V43.0699H0.94181C0.692027 43.0699 0.452474 42.9942 0.27585 42.8594C0.0992261 42.7246 0 42.5418 0 42.3511V23.7183C0 23.5276 0.0992261 23.3448 0.27585 23.21C0.452474 23.0752 0.692027 22.9995 0.94181 22.9995Z" fill="#FFF9EC"/>
<path d="M31.0795 15.8118H10.3597C10.1099 15.8118 9.87032 15.8875 9.6937 16.0223C9.51707 16.1571 9.41785 16.3399 9.41785 16.5305V42.4055C9.41785 42.5961 9.51707 42.779 9.6937 42.9138C9.87032 43.0485 10.1099 43.1243 10.3597 43.1243H31.0795C31.3293 43.1243 31.5688 43.0485 31.7454 42.9138C31.9221 42.779 32.0213 42.5961 32.0213 42.4055V16.5305C32.0213 16.3399 31.9221 16.1571 31.7454 16.0223C31.5688 15.8875 31.3293 15.8118 31.0795 15.8118ZM24.4868 36.6555H16.9523C16.7025 36.6555 16.463 36.5798 16.2864 36.445C16.1097 36.3102 16.0105 36.1274 16.0105 35.9368C16.0105 35.7461 16.1097 35.5633 16.2864 35.4285C16.463 35.2937 16.7025 35.218 16.9523 35.218H24.4868C24.7366 35.218 24.9762 35.2937 25.1528 35.4285C25.3294 35.5633 25.4286 35.7461 25.4286 35.9368C25.4286 36.1274 25.3294 36.3102 25.1528 36.445C24.9762 36.5798 24.7366 36.6555 24.4868 36.6555ZM24.4868 32.343H16.9523C16.7025 32.343 16.463 32.2673 16.2864 32.1325C16.1097 31.9977 16.0105 31.8149 16.0105 31.6243C16.0105 31.4336 16.1097 31.2508 16.2864 31.116C16.463 30.9812 16.7025 30.9055 16.9523 30.9055H24.4868C24.7366 30.9055 24.9762 30.9812 25.1528 31.116C25.3294 31.2508 25.4286 31.4336 25.4286 31.6243C25.4286 31.8149 25.3294 31.9977 25.1528 32.1325C24.9762 32.2673 24.7366 32.343 24.4868 32.343ZM24.4868 28.0305H16.9523C16.7025 28.0305 16.463 27.9548 16.2864 27.82C16.1097 27.6852 16.0105 27.5024 16.0105 27.3118C16.0105 27.1211 16.1097 26.9383 16.2864 26.8035C16.463 26.6687 16.7025 26.593 16.9523 26.593H24.4868C24.7366 26.593 24.9762 26.6687 25.1528 26.8035C25.3294 26.9383 25.4286 27.1211 25.4286 27.3118C25.4286 27.5024 25.3294 27.6852 25.1528 27.82C24.9762 27.9548 24.7366 28.0305 24.4868 28.0305ZM24.4868 23.718H16.9523C16.7025 23.718 16.463 23.6423 16.2864 23.5075C16.1097 23.3727 16.0105 23.1899 16.0105 22.9993C16.0105 22.8086 16.1097 22.6258 16.2864 22.491C16.463 22.3562 16.7025 22.2805 16.9523 22.2805H24.4868C24.7366 22.2805 24.9762 22.3562 25.1528 22.491C25.3294 22.6258 25.4286 22.8086 25.4286 22.9993C25.4286 23.1899 25.3294 23.3727 25.1528 23.5075C24.9762 23.6423 24.7366 23.718 24.4868 23.718Z" fill="#FFF9EC"/>
<path d="M53.9999 7.22929L27.6292 0.0417869C27.4872 0.00311136 27.335 -0.00896059 27.1856 0.00658664C27.0361 0.0221339 26.8938 0.0648454 26.7704 0.131128C26.6471 0.197411 26.5465 0.285326 26.477 0.387476C26.4075 0.489627 26.3711 0.603025 26.371 0.718131V14.3744H31.08C31.8294 14.3744 32.548 14.6016 33.0779 15.0059C33.6078 15.4103 33.9055 15.9588 33.9055 16.5306V43.1244H53.6835C53.9333 43.1244 54.1728 43.0487 54.3494 42.9139C54.5261 42.7791 54.6253 42.5963 54.6253 42.4056V7.90563C54.6251 7.75745 54.5649 7.61293 54.453 7.49186C54.341 7.37078 54.1828 7.27908 53.9999 7.22929ZM39.5563 35.9369C39.5563 36.1275 39.4571 36.3103 39.2805 36.4451C39.1038 36.5799 38.8643 36.6556 38.6145 36.6556C38.3647 36.6556 38.1252 36.5799 37.9485 36.4451C37.7719 36.3103 37.6727 36.1275 37.6727 35.9369V9.34313C37.6727 9.15251 37.7719 8.96969 37.9485 8.8349C38.1252 8.70011 38.3647 8.62438 38.6145 8.62438C38.8643 8.62438 39.1038 8.70011 39.2805 8.8349C39.4571 8.96969 39.5563 9.15251 39.5563 9.34313V35.9369ZM45.2072 35.9369C45.2072 36.1275 45.108 36.3103 44.9313 36.4451C44.7547 36.5799 44.5152 36.6556 44.2654 36.6556C44.0156 36.6556 43.776 36.5799 43.5994 36.4451C43.4228 36.3103 43.3236 36.1275 43.3236 35.9369V10.7806C43.3236 10.59 43.4228 10.4072 43.5994 10.2724C43.776 10.1376 44.0156 10.0619 44.2654 10.0619C44.5152 10.0619 44.7547 10.1376 44.9313 10.2724C45.108 10.4072 45.2072 10.59 45.2072 10.7806V35.9369ZM50.858 35.9369C50.858 36.1275 50.7588 36.3103 50.5822 36.4451C50.4056 36.5799 50.166 36.6556 49.9162 36.6556C49.6664 36.6556 49.4269 36.5799 49.2503 36.4451C49.0736 36.3103 48.9744 36.1275 48.9744 35.9369V12.2181C48.9744 12.0275 49.0736 11.8447 49.2503 11.7099C49.4269 11.5751 49.6664 11.4994 49.9162 11.4994C50.166 11.4994 50.4056 11.5751 50.5822 11.7099C50.7588 11.8447 50.858 12.0275 50.858 12.2181V35.9369Z" fill="#FFF9EC"/>
</svg>
