<svg width="38" height="46" viewBox="0 0 38 46" fill="none" xmlns="http://www.w3.org/2000/svg">
<path d="M23.818 39H14.182L12.063 44.648C12.0061 44.7994 11.9867 44.9623 12.0066 45.1229C12.0265 45.2834 12.085 45.4367 12.1771 45.5696C12.2692 45.7026 12.3923 45.8112 12.5356 45.8861C12.6789 45.9611 12.8383 46.0002 13 46H25C25.1618 46.0002 25.3211 45.9611 25.4645 45.8861C25.6078 45.8112 25.7308 45.7026 25.8229 45.5696C25.9151 45.4367 25.9736 45.2834 25.9935 45.1229C26.0133 44.9623 25.994 44.7994 25.937 44.648L23.818 39Z" fill="#E5E5E5"/>
<path d="M36.6061 20.293C35.7778 19.4663 34.6554 19.002 33.4851 19.002C32.3148 19.002 31.1924 19.4663 30.3641 20.293C29.9103 20.7441 29.2965 20.9973 28.6566 20.9973C28.0168 20.9973 27.4029 20.7441 26.9491 20.293C26.1207 19.4666 24.9983 19.0024 23.8281 19.0024C22.6579 19.0024 21.5355 19.4666 20.7071 20.293C20.254 20.745 19.6401 20.9989 19.0001 20.9989C18.3601 20.9989 17.7462 20.745 17.2931 20.293C16.4647 19.4666 15.3423 19.0024 14.1721 19.0024C13.0019 19.0024 11.8795 19.4666 11.0511 20.293C10.5973 20.7441 9.98346 20.9973 9.3436 20.9973C8.70375 20.9973 8.08989 20.7441 7.6361 20.293C6.80781 19.4663 5.68536 19.002 4.5151 19.002C3.34485 19.002 2.22239 19.4663 1.3941 20.293C1.2151 20.472 1.1106 20.7121 1.10169 20.9651C1.09279 21.218 1.18013 21.4649 1.3461 21.656L14.6751 37H18.0001V34C18.0001 33.7348 18.1055 33.4804 18.293 33.2929C18.4805 33.1054 18.7349 33 19.0001 33C19.2653 33 19.5197 33.1054 19.7072 33.2929C19.8947 33.4804 20.0001 33.7348 20.0001 34V37H23.3251L36.6541 21.656C36.8201 21.4649 36.9074 21.218 36.8985 20.9651C36.8896 20.7121 36.7851 20.472 36.6061 20.293Z" fill="#E5E5E5"/>
<path d="M9.03501 6.694C7.72594 8.15143 7.00125 10.041 7.00001 12C7.00001 12.2652 6.89465 12.5196 6.70711 12.7071C6.51958 12.8946 6.26522 13 6.00001 13C5.73479 13 5.48044 12.8946 5.2929 12.7071C5.10536 12.5196 5.00001 12.2652 5.00001 12C4.99824 9.69276 5.79818 7.45659 7.26301 5.674C5.35827 4.57642 3.19835 3.99911 1.00001 4C0.734791 4 0.480437 4.10536 0.292901 4.29289C0.105365 4.48043 7.51113e-06 4.73478 7.51113e-06 5V10C-0.00228651 11.6735 0.520945 13.3055 1.49588 14.6657C2.47081 16.0259 3.84822 17.0456 5.43377 17.581C7.01931 18.1164 8.73295 18.1405 10.3329 17.6497C11.9328 17.159 13.3383 16.1783 14.351 14.846C12.8443 14.052 11.5653 12.8865 10.635 11.4599C9.70473 10.0334 9.15401 8.39293 9.03501 6.694Z" fill="#E5E5E5"/>
<path d="M28.9649 6.694C30.274 8.15143 30.9987 10.041 30.9999 12C30.9999 12.2652 31.1053 12.5196 31.2928 12.7071C31.4804 12.8946 31.7347 13 31.9999 13C32.2651 13 32.5195 12.8946 32.707 12.7071C32.8946 12.5196 32.9999 12.2652 32.9999 12C33.0017 9.69276 32.2018 7.45659 30.7369 5.674C32.6417 4.57642 34.8016 3.99911 36.9999 4C37.2651 4 37.5195 4.10536 37.707 4.29289C37.8946 4.48043 37.9999 4.73478 37.9999 5V10C38.0022 11.6735 37.479 13.3055 36.5041 14.6657C35.5291 16.0259 34.1517 17.0456 32.5662 17.581C30.9806 18.1164 29.267 18.1405 27.667 17.6497C26.0671 17.159 24.6616 16.1783 23.6489 14.846C25.1556 14.052 26.4346 12.8865 27.3649 11.4599C28.2952 10.0334 28.8459 8.39293 28.9649 6.694Z" fill="#E5E5E5"/>
<path d="M26 1.02925e-06C23.8017 -0.000889736 21.6417 0.576421 19.737 1.674C21.2018 3.45659 22.0018 5.69276 22 8C22 8.26522 21.8946 8.51957 21.7071 8.70711C21.5196 8.89464 21.2652 9 21 9C20.7348 9 20.4804 8.89464 20.2929 8.70711C20.1054 8.51957 20 8.26522 20 8C19.9988 6.00812 19.2514 4.08897 17.905 2.621C17.795 2.501 17.685 2.381 17.568 2.268C17.486 2.188 17.4 2.113 17.314 2.037C17.198 1.937 17.081 1.831 16.959 1.737C16.867 1.664 16.771 1.595 16.676 1.525C16.552 1.435 16.4253 1.34833 16.296 1.265C16.196 1.202 16.096 1.14 15.996 1.081C15.861 1.003 15.725 0.930001 15.586 0.860001C15.48 0.807001 15.375 0.760001 15.267 0.707001C15.123 0.642001 14.975 0.584001 14.826 0.527001C14.718 0.486001 14.61 0.444001 14.499 0.407001C14.341 0.355001 14.18 0.312001 14.018 0.270001C13.911 0.242001 13.805 0.211001 13.696 0.187001C13.515 0.148001 13.329 0.121001 13.143 0.094001C13.049 0.080001 12.957 0.061001 12.863 0.051001C12.5764 0.0187284 12.2884 0.00170436 12 1.02925e-06C11.7348 1.02925e-06 11.4804 0.105358 11.2929 0.292894C11.1054 0.480431 11 0.734785 11 1V6C11.0032 7.94698 11.7157 9.8261 13.0041 11.2858C14.2924 12.7456 16.0685 13.6859 18 13.931V18C18 18.2652 18.1054 18.5196 18.2929 18.7071C18.4804 18.8946 18.7348 19 19 19C19.2652 19 19.5196 18.8946 19.7071 18.7071C19.8946 18.5196 20 18.2652 20 18V13.931C21.9315 13.6859 23.7076 12.7456 24.9959 11.2858C26.2843 9.8261 26.9968 7.94698 27 6V1C27 0.734785 26.8946 0.480431 26.7071 0.292894C26.5196 0.105358 26.2652 1.02925e-06 26 1.02925e-06Z" fill="#E5E5E5"/>
</svg>
