<svg width="17" height="17" viewBox="0 0 17 17" fill="none"
    xmlns="http://www.w3.org/2000/svg">
    <path d="M13.4119 12.147C14.3119 10.9545 14.8119 9.5632 14.8119 7.97314C14.8119 4.09736 11.7119 0.917236 7.81191 0.917236C3.91191 0.917236 0.711914 4.09736 0.711914 7.97314C0.711914 11.8489 3.91191 15.029 7.81191 15.029C9.41191 15.029 10.9119 14.5321 12.0119 13.6377L15.0119 16.6191C15.2119 16.8179 15.5119 16.9172 15.7119 16.9172C15.9119 16.9172 16.2119 16.8179 16.4119 16.6191C16.8119 16.2216 16.8119 15.6253 16.4119 15.2278L13.4119 12.147ZM7.81191 12.9421C5.01191 12.9421 2.71191 10.7557 2.71191 7.97314C2.71191 5.19053 5.01191 2.90481 7.81191 2.90481C10.6119 2.90481 12.9119 5.19053 12.9119 7.97314C12.9119 10.7557 10.6119 12.9421 7.81191 12.9421Z" fill="#8A7E61"/>
</svg>
