<svg width="20" height="16" viewBox="0 0 20 16" fill="none" xmlns="http://www.w3.org/2000/svg">
<path d="M1.6 12.3999V2.3999H1.2C0.88174 2.3999 0.576515 2.52633 0.351472 2.75137C0.126428 2.97642 0 3.28164 0 3.5999L0 14.7999C0 15.1182 0.126428 15.4234 0.351472 15.6484C0.576515 15.8735 0.88174 15.9999 1.2 15.9999H15.6C15.9183 15.9999 16.2235 15.8735 16.4485 15.6484C16.6736 15.4234 16.8 15.1182 16.8 14.7999V14.3999H3.6C3.06957 14.3999 2.56086 14.1892 2.18579 13.8141C1.81071 13.439 1.6 12.9303 1.6 12.3999Z" fill="white"/>
<path d="M18 0H3.60002C3.28176 0 2.97654 0.126428 2.7515 0.351472C2.52645 0.576516 2.40002 0.88174 2.40002 1.2V12.4C2.40002 12.7183 2.52645 13.0235 2.7515 13.2485C2.97654 13.4736 3.28176 13.6 3.60002 13.6H18C18.3183 13.6 18.6235 13.4736 18.8486 13.2485C19.0736 13.0235 19.2 12.7183 19.2 12.4V1.2C19.2 0.88174 19.0736 0.576516 18.8486 0.351472C18.6235 0.126428 18.3183 0 18 0ZM13.5328 7.022C13.5037 7.06597 13.466 7.10364 13.422 7.1328L9.82202 9.5328C9.76178 9.57299 9.69176 9.59608 9.61943 9.59959C9.5471 9.6031 9.47517 9.58691 9.41132 9.55275C9.34747 9.51859 9.29409 9.46773 9.25687 9.4056C9.21966 9.34348 9.20001 9.27242 9.20002 9.2V4.4C9.20001 4.32758 9.21966 4.25652 9.25687 4.1944C9.29409 4.13227 9.34747 4.08141 9.41132 4.04725C9.47517 4.01309 9.5471 3.9969 9.61943 4.00041C9.69176 4.00392 9.76178 4.02701 9.82202 4.0672L13.422 6.4672C13.4657 6.49635 13.5033 6.53382 13.5325 6.57748C13.5617 6.62114 13.5821 6.67013 13.5923 6.72165C13.6026 6.77317 13.6027 6.82621 13.5925 6.87775C13.5822 6.92928 13.562 6.9783 13.5328 7.022Z" fill="white"/>
</svg>
