<svg width="226" height="46" viewBox="0 0 226 46" fill="none" xmlns="http://www.w3.org/2000/svg">
<path d="M0.451172 14.5797L5.48988 11.9568H7.62961V14.3496C8.44255 13.6594 9.3782 13.0996 10.4366 12.6701C11.5103 12.2406 12.7527 12.0259 14.1638 12.0259C15.667 12.0259 17.0321 12.325 18.2592 12.9232C19.4863 13.506 20.537 14.3036 21.4113 15.316C22.2856 16.313 22.9605 17.4787 23.436 18.8132C23.9115 20.1476 24.1492 21.5664 24.1492 23.0696C24.1492 25.0023 23.8655 26.7892 23.2979 28.4304C22.7304 30.0563 21.9251 31.4675 20.8821 32.6639C19.8391 33.8449 18.5737 34.7729 17.0858 35.4478C15.598 36.1074 13.9261 36.4371 12.0701 36.4371C11.1191 36.4371 10.2985 36.3988 9.60828 36.3221C8.93339 36.2454 8.27383 36.0767 7.62961 35.8159V45.9164H0.451172V14.5797ZM7.62961 29.4658C7.62961 30.0333 7.73698 30.5702 7.95172 31.0763C8.16646 31.5672 8.46556 31.9966 8.84902 32.3648C9.23249 32.7329 9.69264 33.0243 10.2295 33.2391C10.7817 33.4538 11.3952 33.5612 12.0701 33.5612C12.6683 33.5612 13.2358 33.3618 13.7727 32.963C14.3249 32.5488 14.8004 31.9813 15.1992 31.2604C15.6133 30.5241 15.9354 29.6575 16.1655 28.6605C16.4109 27.6635 16.5336 26.5745 16.5336 25.3934C16.5336 23.8749 16.4263 22.5404 16.2115 21.39C15.9968 20.2396 15.6977 19.281 15.3142 18.5141C14.9308 17.7471 14.4706 17.1719 13.9337 16.7885C13.4122 16.3897 12.8447 16.1903 12.2312 16.1903C11.7864 16.1903 11.3492 16.267 10.9197 16.4204C10.4902 16.5737 10.0761 16.7885 9.6773 17.0646C9.29384 17.3253 8.92572 17.6321 8.57293 17.9849C8.23548 18.3377 7.92104 18.7135 7.62961 19.1123V29.4658ZM45.1093 17.3867C44.7872 17.1106 44.4881 16.8728 44.212 16.6734C43.9513 16.474 43.6905 16.313 43.4298 16.1903C43.169 16.0676 42.8929 15.9832 42.6015 15.9372C42.3254 15.8758 42.011 15.8452 41.6582 15.8452C41.1673 15.8452 40.6842 15.9295 40.2087 16.0982C39.7332 16.2516 39.2884 16.474 38.8742 16.7655C38.4601 17.0416 38.0843 17.3713 37.7468 17.7548C37.4247 18.1229 37.1716 18.5217 36.9876 18.9512V36H29.8552V14.5797L34.8479 11.9568L36.9876 14.2576C37.7698 13.4447 38.6365 12.7928 39.5875 12.302C40.5538 11.8111 41.5661 11.5657 42.6245 11.5657C43.6522 11.5657 44.5802 11.7804 45.4084 12.2099C46.2367 12.6241 46.9576 13.0842 47.5712 13.5904L45.1093 17.3867ZM61.1918 36.5292C59.5199 36.5292 57.9477 36.2224 56.4752 35.6089C55.0027 34.98 53.7219 34.144 52.6329 33.101C51.5439 32.0427 50.6772 30.8232 50.033 29.4428C49.4041 28.047 49.0897 26.5745 49.0897 25.0253C49.0897 23.1693 49.3811 21.4514 49.964 19.8715C50.5468 18.2763 51.3751 16.8958 52.4488 15.7301C53.5225 14.5644 54.8033 13.6594 56.2911 13.0152C57.7943 12.3556 59.4662 12.0259 61.3068 12.0259C62.9481 12.0259 64.4512 12.2866 65.8164 12.8081C67.1815 13.3296 68.3472 14.0429 69.3136 14.9479C70.2952 15.8528 71.0545 16.9189 71.5913 18.1459C72.1282 19.373 72.3966 20.6845 72.3966 22.0803H56.0841C56.1454 23.384 56.3371 24.6265 56.6593 25.8075C56.9967 26.9886 57.4415 28.0316 57.9937 28.9366C58.5459 29.8262 59.1901 30.5395 59.9264 31.0763C60.678 31.5978 61.5062 31.8586 62.4112 31.8586C63.1935 31.8586 63.9604 31.7282 64.712 31.4675C65.4789 31.1914 66.1845 30.8232 66.8287 30.3631C67.4729 29.8876 68.0328 29.3431 68.5083 28.7295C68.9838 28.1007 69.3289 27.4258 69.5436 26.7048L73.1789 27.28C72.8107 28.5531 72.2202 29.7495 71.4073 30.8693C70.6097 31.989 69.6663 32.9706 68.5773 33.8143C67.5036 34.6579 66.3302 35.3251 65.0571 35.8159C63.784 36.2914 62.4956 36.5292 61.1918 36.5292ZM64.2058 19.6414C64.1445 18.9512 63.9911 18.3223 63.7457 17.7548C63.5156 17.1719 63.2165 16.6734 62.8484 16.2593C62.4802 15.8452 62.0508 15.5307 61.5599 15.316C61.0691 15.0859 60.5399 14.9709 59.9724 14.9709C59.5276 14.9709 59.0904 15.0859 58.6609 15.316C58.2315 15.5307 57.8403 15.8452 57.4875 16.2593C57.1501 16.6581 56.8587 17.1489 56.6132 17.7318C56.3832 18.2993 56.2298 18.9359 56.1531 19.6414H64.2058Z" fill="white"/>
<path d="M83.7855 16.7655C85.1813 15.1703 86.6538 13.9815 88.203 13.1993C89.7522 12.4017 91.3167 12.0029 92.8966 12.0029C93.7248 12.0029 94.4918 12.1869 95.1973 12.555C95.9183 12.9232 96.5471 13.4293 97.084 14.0736C97.6208 14.7178 98.0426 15.477 98.3494 16.3513C98.6562 17.2103 98.8096 18.1306 98.8096 19.1123V36H94.139V19.9175C94.139 18.353 93.7862 17.1719 93.0806 16.3743C92.3751 15.5614 91.4701 15.1549 90.3657 15.1549C89.8749 15.1549 89.3534 15.2393 88.8012 15.408C88.249 15.5767 87.6891 15.8145 87.1216 16.1213C86.5541 16.4127 85.9866 16.7655 85.419 17.1796C84.8515 17.5938 84.307 18.0539 83.7855 18.5601V36H79.0919V1.76438L82.451 0.429923H83.7855V16.7655ZM117.975 36.5062C116.165 36.5062 114.501 36.1917 112.982 35.5629C111.464 34.934 110.152 34.0827 109.048 33.009C107.944 31.9199 107.077 30.6545 106.448 29.2127C105.835 27.7555 105.528 26.1987 105.528 24.5421C105.528 22.8089 105.835 21.183 106.448 19.6645C107.077 18.1306 107.944 16.7961 109.048 15.6611C110.152 14.526 111.464 13.6364 112.982 12.9922C114.501 12.3326 116.165 12.0029 117.975 12.0029C119.77 12.0029 121.419 12.302 122.922 12.9002C124.44 13.4984 125.752 14.319 126.856 15.362C127.96 16.405 128.819 17.6321 129.433 19.0432C130.062 20.439 130.376 21.9422 130.376 23.5528C130.376 25.332 130.062 27.0116 129.433 28.5915C128.819 30.156 127.96 31.5288 126.856 32.7099C125.752 33.8756 124.44 34.8036 122.922 35.4938C121.419 36.1687 119.77 36.5062 117.975 36.5062ZM118.872 34.7806C119.793 34.7806 120.636 34.5428 121.403 34.0673C122.17 33.5918 122.83 32.9553 123.382 32.1577C123.934 31.3448 124.364 30.4091 124.67 29.3507C124.977 28.2924 125.131 27.1727 125.131 25.9916C125.131 24.289 124.985 22.6938 124.693 21.206C124.402 19.7181 123.926 18.422 123.267 17.3177C122.607 16.2133 121.748 15.3467 120.69 14.7178C119.632 14.0736 118.343 13.7514 116.825 13.7514C116.042 13.7514 115.283 13.9815 114.547 14.4417C113.811 14.8865 113.159 15.5 112.591 16.2823C112.039 17.0646 111.594 17.9849 111.257 19.0432C110.919 20.0863 110.751 21.1983 110.751 22.3794C110.751 24.0973 110.927 25.7078 111.28 27.211C111.648 28.7142 112.177 30.0256 112.867 31.1454C113.573 32.2651 114.424 33.1547 115.421 33.8143C116.434 34.4585 117.584 34.7806 118.872 34.7806ZM140.385 12.0029H141.719V16.8805C142.317 16.2363 142.992 15.6227 143.744 15.0399C144.495 14.4417 145.27 13.9202 146.068 13.4754C146.865 13.0152 147.663 12.6547 148.46 12.394C149.258 12.1332 150.017 12.0029 150.738 12.0029C151.428 12.0029 152.126 12.1256 152.832 12.371C153.553 12.6164 154.212 12.9615 154.811 13.4063C155.424 13.8511 155.946 14.3803 156.375 14.9939C156.82 15.5921 157.111 16.2516 157.249 16.9725C157.633 16.2823 158.162 15.6381 158.837 15.0399C159.527 14.4263 160.286 13.8972 161.115 13.4523C161.943 13.0075 162.817 12.6547 163.738 12.394C164.673 12.1332 165.586 12.0029 166.476 12.0029C167.365 12.0029 168.193 12.2023 168.96 12.6011C169.743 12.9845 170.425 13.5137 171.008 14.1886C171.591 14.8482 172.051 15.6304 172.389 16.5354C172.726 17.425 172.895 18.376 172.895 19.3884V36H168.224V20.0326C168.224 19.373 168.109 18.7518 167.879 18.1689C167.664 17.5707 167.365 17.0492 166.982 16.6044C166.598 16.1596 166.146 15.8068 165.624 15.5461C165.118 15.2853 164.581 15.1549 164.014 15.1549C163.369 15.1549 162.71 15.247 162.035 15.431C161.375 15.5997 160.747 15.8375 160.148 16.1443C159.55 16.451 159.006 16.8115 158.515 17.2256C158.024 17.6244 157.633 18.0539 157.341 18.5141V36H152.671V20.0326C152.671 19.373 152.556 18.7518 152.326 18.1689C152.096 17.5707 151.789 17.0492 151.405 16.6044C151.022 16.1596 150.569 15.8068 150.048 15.5461C149.526 15.2853 148.982 15.1549 148.414 15.1549C147.816 15.1549 147.195 15.247 146.551 15.431C145.922 15.6151 145.301 15.8605 144.687 16.1673C144.089 16.474 143.529 16.8345 143.008 17.2486C142.486 17.6474 142.057 18.0692 141.719 18.5141V36H137.026V13.3143L140.385 12.0029ZM191.163 36.5062C189.568 36.5062 188.065 36.2071 186.653 35.6089C185.258 35.0107 184.038 34.1977 182.995 33.17C181.952 32.1424 181.124 30.9383 180.51 29.5578C179.912 28.162 179.613 26.6818 179.613 25.1173C179.613 23.2307 179.889 21.4897 180.441 19.8945C180.993 18.284 181.776 16.8958 182.788 15.7301C183.8 14.5644 185.012 13.6517 186.423 12.9922C187.85 12.3326 189.437 12.0029 191.186 12.0029C192.72 12.0029 194.131 12.2789 195.419 12.8311C196.708 13.368 197.812 14.0966 198.733 15.0169C199.668 15.9218 200.389 16.9725 200.895 18.1689C201.417 19.3654 201.678 20.6154 201.678 21.9192H184.123C184.123 23.4991 184.322 24.9639 184.721 26.3137C185.135 27.6635 185.71 28.8292 186.446 29.8109C187.183 30.7926 188.057 31.5595 189.069 32.1117C190.082 32.6639 191.194 32.94 192.405 32.94C193.418 32.94 194.392 32.7789 195.327 32.4568C196.263 32.1193 197.107 31.6822 197.858 31.1454C198.625 30.6085 199.277 29.995 199.814 29.3047C200.351 28.6145 200.727 27.9013 200.941 27.165L202.299 27.7632C201.961 28.9749 201.417 30.11 200.665 31.1684C199.914 32.2267 199.032 33.1547 198.019 33.9523C197.022 34.7346 195.933 35.3558 194.752 35.8159C193.571 36.2761 192.375 36.5062 191.163 36.5062ZM195.811 20.0326C195.811 19.1429 195.649 18.3147 195.327 17.5477C195.021 16.7808 194.591 16.1213 194.039 15.5691C193.487 15.0015 192.843 14.5567 192.106 14.2346C191.37 13.9125 190.58 13.7514 189.736 13.7514C189.031 13.7514 188.356 13.9125 187.712 14.2346C187.068 14.5414 186.492 14.9785 185.986 15.5461C185.48 16.0982 185.058 16.7578 184.721 17.5247C184.399 18.2917 184.207 19.1199 184.146 20.0096L195.811 20.0326ZM216.057 34.8726C216.686 34.8726 217.269 34.7806 217.806 34.5965C218.343 34.3971 218.803 34.1364 219.186 33.8143C219.585 33.4921 219.892 33.124 220.107 32.7099C220.321 32.2804 220.429 31.8433 220.429 31.3984C220.429 30.6775 220.245 30.0486 219.877 29.5118C219.524 28.9749 219.048 28.4995 218.45 28.0853C217.867 27.6558 217.2 27.2647 216.449 26.9119C215.697 26.5591 214.93 26.1987 214.148 25.8305C213.365 25.4471 212.599 25.0483 211.847 24.6341C211.095 24.2047 210.42 23.7062 209.822 23.1386C209.239 22.5711 208.764 21.9192 208.396 21.183C208.043 20.4314 207.867 19.5571 207.867 18.5601C207.867 17.6244 208.066 16.7578 208.465 15.9602C208.864 15.1473 209.416 14.4493 210.121 13.8665C210.842 13.2836 211.694 12.8311 212.675 12.509C213.657 12.1716 214.731 12.0029 215.896 12.0029C216.679 12.0029 217.407 12.0565 218.082 12.1639C218.757 12.2713 219.417 12.4783 220.061 12.7851C220.72 13.0919 221.372 13.5367 222.016 14.1196C222.661 14.6871 223.343 15.431 224.064 16.3513L222.339 17.8929C221.449 16.4357 220.452 15.3543 219.348 14.6488C218.258 13.9278 217.093 13.5674 215.85 13.5674C215.175 13.5674 214.562 13.6517 214.01 13.8205C213.458 13.9739 212.982 14.1963 212.583 14.4877C212.2 14.7638 211.893 15.0936 211.663 15.477C211.448 15.8605 211.341 16.267 211.341 16.6964C211.341 17.402 211.533 18.0156 211.916 18.5371C212.315 19.0586 212.836 19.5341 213.481 19.9636C214.125 20.3777 214.853 20.7612 215.666 21.1139C216.495 21.4667 217.33 21.8272 218.174 22.1953C219.033 22.5634 219.869 22.9622 220.682 23.3917C221.51 23.8212 222.246 24.3197 222.891 24.8872C223.535 25.4394 224.049 26.0836 224.432 26.8199C224.831 27.5561 225.03 28.4151 225.03 29.3968C225.03 30.3938 224.846 31.3294 224.478 32.2037C224.11 33.0627 223.55 33.8143 222.799 34.4585C222.062 35.0874 221.134 35.5859 220.015 35.954C218.895 36.3221 217.576 36.5062 216.057 36.5062C215.367 36.5062 214.654 36.4525 213.918 36.3451C213.197 36.2377 212.468 36.0307 211.732 35.7239C210.996 35.4018 210.259 34.957 209.523 34.3895C208.787 33.8219 208.066 33.078 207.36 32.1577L209.27 30.4321C209.838 31.2297 210.382 31.9123 210.904 32.4798C211.425 33.032 211.954 33.4921 212.491 33.8603C213.043 34.2131 213.603 34.4738 214.171 34.6425C214.754 34.7959 215.382 34.8726 216.057 34.8726Z" fill="#8B8B8B"/>
</svg>
