<svg xmlns="http://www.w3.org/2000/svg" width="98" height="98" viewBox="0 0 98 98">
    <g transform="translate(-1216)">
        <circle cx="72.5" cy="72.5" r="72.5" transform="translate(1216)" fill="#f15d5e" />
        <path d="M35.438.221a1.255,1.255,0,0,1,.542,1.286L30.837,32.364a1.264,1.264,0,0,1-.643.9,1.231,1.231,0,0,1-.623.161,1.356,1.356,0,0,1-.482-.1l-9.1-3.717-4.862,5.926a1.183,1.183,0,0,1-.984.462,1.091,1.091,0,0,1-.442-.08,1.285,1.285,0,0,1-.844-1.206V27.7L30.214,6.428,8.739,25.011.8,21.757a1.271,1.271,0,0,1-.161-2.29L34.071.181A1.227,1.227,0,0,1,34.714,0a1.245,1.245,0,0,1,.723.221Z" transform="translate(1247 37)" fill="#fff" />
    </g>
</svg>