<svg width="16" height="16" viewBox="0 0 16 16" fill="none" xmlns="http://www.w3.org/2000/svg">
<path d="M3 2H13L7.99 8.3L3 2ZM0.249999 1.61C2.27 4.2 6 9 6 9V15C6 15.55 6.45 16 7 16H9C9.55 16 10 15.55 10 15V9C10 9 13.72 4.2 15.74 1.61C15.8546 1.46237 15.9255 1.28553 15.9445 1.09961C15.9635 0.913684 15.93 0.726154 15.8476 0.558371C15.7653 0.390588 15.6375 0.249293 15.4788 0.150577C15.3201 0.0518598 15.1369 -0.000312035 14.95 1.40404e-06H1.04C0.209999 1.40404e-06 -0.260001 0.950002 0.249999 1.61Z" fill="#FFEEEE"/>
</svg>
