<svg width="20" height="20" viewBox="0 0 20 20" fill="none" xmlns="http://www.w3.org/2000/svg">
<path d="M7.5 0H0.833333C0.373096 0 0 0.373096 0 0.833333V7.5C0 7.96024 0.373096 8.33333 0.833333 8.33333H7.5C7.96024 8.33333 8.33333 7.96024 8.33333 7.5V0.833333C8.33333 0.373096 7.96024 0 7.5 0Z" fill="#AC9986"/>
<path d="M19.1667 0H12.5C12.0398 0 11.6667 0.373096 11.6667 0.833333V7.5C11.6667 7.96024 12.0398 8.33333 12.5 8.33333H19.1667C19.6269 8.33333 20 7.96024 20 7.5V0.833333C20 0.373096 19.6269 0 19.1667 0Z" fill="#AC9986"/>
<path d="M7.5 11.6667H0.833333C0.373096 11.6667 0 12.0398 0 12.5001V19.1667C0 19.627 0.373096 20.0001 0.833333 20.0001H7.5C7.96024 20.0001 8.33333 19.627 8.33333 19.1667V12.5001C8.33333 12.0398 7.96024 11.6667 7.5 11.6667Z" fill="#AC9986"/>
<path d="M19.1667 11.6667H12.5C12.0398 11.6667 11.6667 12.0398 11.6667 12.5001V19.1667C11.6667 19.627 12.0398 20.0001 12.5 20.0001H19.1667C19.6269 20.0001 20 19.627 20 19.1667V12.5001C20 12.0398 19.6269 11.6667 19.1667 11.6667Z" fill="#AC9986"/>
</svg>
