<svg width="24" height="24" viewBox="0 0 24 24" fill="none" xmlns="http://www.w3.org/2000/svg">
<path d="M9 0H1C0.447715 0 0 0.447715 0 1V9C0 9.55229 0.447715 10 1 10H9C9.55229 10 10 9.55229 10 9V1C10 0.447715 9.55229 0 9 0Z" fill="#212121"/>
<path d="M23 0H15C14.4477 0 14 0.447715 14 1V9C14 9.55229 14.4477 10 15 10H23C23.5523 10 24 9.55229 24 9V1C24 0.447715 23.5523 0 23 0Z" fill="#212121"/>
<path d="M9 14H1C0.447715 14 0 14.4477 0 15V23C0 23.5523 0.447715 24 1 24H9C9.55229 24 10 23.5523 10 23V15C10 14.4477 9.55229 14 9 14Z" fill="#212121"/>
<path d="M23 14H15C14.4477 14 14 14.4477 14 15V23C14 23.5523 14.4477 24 15 24H23C23.5523 24 24 23.5523 24 23V15C24 14.4477 23.5523 14 23 14Z" fill="#212121"/>
</svg>
