<svg xmlns="http://www.w3.org/2000/svg" xmlns:xlink="http://www.w3.org/1999/xlink" width="115" height="115" viewBox="0 0 115 115">
  <defs>
    <clipPath id="clip-path">
      <rect id="Rectangle_585" data-name="Rectangle 585" width="115" height="115" transform="translate(-216 1828)" fill="#fff" stroke="#707070" stroke-width="1"/>
    </clipPath>
  </defs>
  <g id="our-approach-tile-img-4" transform="translate(216 -1828)" clip-path="url(#clip-path)">
    <g id="Group_1998" data-name="Group 1998" transform="translate(-205 1845)">
      <g id="Group_1987" data-name="Group 1987" transform="translate(0 41.52)">
        <g id="Group_1984" data-name="Group 1984">
          <path id="Path_877" data-name="Path 877" d="M587,810.751H568c-.252,0,0,.252,0,0v-36c0-.252-.252,0,0,0h19c.252,0,0-.252,0,0v36C587,811,587.252,810.751,587,810.751Zm-18-1h17v-35H569Z" transform="translate(-568 -774.271)" fill="#6f8794"/>
        </g>
        <g id="Group_1985" data-name="Group 1985" transform="translate(18.145 5.128)">
          <path id="Path_878" data-name="Path 878" d="M685.293,831.073h-4a13.812,13.812,0,0,1-5-1l-17-7a14.785,14.785,0,0,0-6-1h-5a1.935,1.935,0,0,1-1-1v-24c0-.252.748,0,1,0h8a13.943,13.943,0,0,1,6,1l8,3c2.148.9,4.674,2,7,2h6c5.084,0,9.955,3.926,10,9l16-10c4.173-2.409,9.2-.921,12,3,.655.917-.088,2.339-1,3l-28,21A11.9,11.9,0,0,1,685.293,831.073Zm-37-10h5a18.877,18.877,0,0,1,7,1l17,7a9.839,9.839,0,0,0,4,1h4a9.774,9.774,0,0,0,6-2l29-21c.507-.368.364-.49,0-1h0c-2.525-3.536-7.237-5.172-11-3l-17,10c-.069.04.08,0,0,0h0c-.252,0,0-.748,0-1h0a9.507,9.507,0,0,0-9-9h-6a17.545,17.545,0,0,1-7-1l-8-3a14.7,14.7,0,0,0-6-1h-8Z" transform="translate(-647.437 -796.721)" fill="#6f8794"/>
        </g>
        <g id="Group_1986" data-name="Group 1986" transform="translate(38.655 20.511)">
          <path id="Path_879" data-name="Path 879" d="M737.578,872.038c-.252,0,0-.748,0-1a6.8,6.8,0,0,1,7-7h17c.253,0,1-.252,1,0a1.934,1.934,0,0,1-1,1h-17a5.743,5.743,0,0,0-6,6A1.935,1.935,0,0,1,737.578,872.038Z" transform="translate(-737.233 -864.069)" fill="#6f8794"/>
        </g>
      </g>
      <g id="Group_1988" data-name="Group 1988" transform="translate(29.906 33.12)">
        <path id="Path_880" data-name="Path 880" d="M699.023,752.375c-.252,0,0,.252,0,0v-14c0-.252-.252-1,0-1a1.936,1.936,0,0,1,1,1v14C700.023,752.627,699.276,752.375,699.023,752.375Z" transform="translate(-698.93 -737.495)" fill="#6f8794"/>
      </g>
      <g id="Group_1989" data-name="Group 1989" transform="translate(42.241 21.014)">
        <path id="Path_881" data-name="Path 881" d="M753.689,716.481a1.935,1.935,0,0,1-1-1v-31c0-.252.748,0,1,0s0-.252,0,0v31C753.689,715.733,753.942,716.481,753.689,716.481Z" transform="translate(-752.93 -684.495)" fill="#6f8794"/>
      </g>
      <g id="Group_1990" data-name="Group 1990" transform="translate(53.89 28.78)">
        <path id="Path_882" data-name="Path 882" d="M804.04,742.715c-.252,0,0,.252,0,0v-24c0-.252-.252,0,0,0s1-.252,1,0v24C805.04,742.967,804.292,742.715,804.04,742.715Z" transform="translate(-803.93 -718.495)" fill="#6f8794"/>
      </g>
      <g id="Group_1991" data-name="Group 1991" transform="translate(65.767 18.045)">
        <path id="Path_883" data-name="Path 883" d="M856.163,714.45c-.252,0,0,.252,0,0v-42c0-.252-.252-1,0-1a1.936,1.936,0,0,1,1,1v42C857.163,714.7,856.415,714.45,856.163,714.45Z" transform="translate(-855.93 -671.495)" fill="#6f8794"/>
      </g>
      <g id="Group_1992" data-name="Group 1992" transform="translate(77.416 7.196)">
        <path id="Path_884" data-name="Path 884" d="M907.514,670.8h0c-.252,0-1,.252-1,0v-46a1.936,1.936,0,0,1,1-1h0c.252,0,0,.748,0,1v46C907.514,671.056,907.766,670.8,907.514,670.8Z" transform="translate(-906.93 -624)" fill="#6f8794"/>
      </g>
      <g id="Group_1993" data-name="Group 1993" transform="translate(77.873)">
        <path id="Path_885" data-name="Path 885" d="M917.057,593.5h-8c-.252,0,0-.748,0-1s-.252,0,0,0h8c.252,0,0-.252,0,0S917.309,593.5,917.057,593.5Z" transform="translate(-908.93 -592.495)" fill="#6f8794"/>
      </g>
      <g id="Group_1994" data-name="Group 1994" transform="translate(85.182)">
        <path id="Path_886" data-name="Path 886" d="M941.748,600.5c-.252,0-1,.252-1,0v-8c0-.252.748,0,1,0s0-.252,0,0v8C941.748,600.747,942,600.5,941.748,600.5Z" transform="translate(-940.93 -592.495)" fill="#6f8794"/>
      </g>
      <g id="Group_1995" data-name="Group 1995" transform="translate(53.89 0)">
        <path id="Path_887" data-name="Path 887" d="M804.04,622.5c-.123,0,.09.1,0,0a1,1,0,0,1,0-1l31-29a.707.707,0,0,1,1,1l-31,29A4.151,4.151,0,0,1,804.04,622.5Z" transform="translate(-803.93 -592.495)" fill="#6f8794"/>
      </g>
      <g id="Group_1996" data-name="Group 1996" transform="translate(22.825 21.014)">
        <path id="Path_888" data-name="Path 888" d="M668.1,704.482c-.119,0,.09.092,0,0a1,1,0,0,1,0-1l19-19a.707.707,0,0,1,1,1l-19,19A3.858,3.858,0,0,1,668.1,704.482Z" transform="translate(-667.93 -684.496)" fill="#6f8794"/>
      </g>
      <g id="Group_1997" data-name="Group 1997" transform="translate(42.24 21.014)">
        <path id="Path_889" data-name="Path 889" d="M764.689,693.48c-.087,0,.078.052,0,0l-12-8c-.21-.14-.14-.79,0-1s.79-.141,1,0l12,8c.21.14.14-.21,0,0C765.6,692.612,764.837,693.48,764.689,693.48Z" transform="translate(-752.93 -684.494)" fill="#6f8794"/>
      </g>
    </g>
  </g>
</svg>
