<svg xmlns="http://www.w3.org/2000/svg" xmlns:xlink="http://www.w3.org/1999/xlink" width="115" height="115" viewBox="0 0 115 115">
  <defs>
    <clipPath id="clip-path">
      <rect id="Rectangle_582" data-name="Rectangle 582" width="115" height="115" transform="translate(-342 1707)" fill="#fff" stroke="#707070" stroke-width="1"/>
    </clipPath>
  </defs>
  <g id="our-approach-tile-img-1" transform="translate(342 -1707)" clip-path="url(#clip-path)">
    <g id="Group_1949" data-name="Group 1949" transform="translate(-326 1722)">
      <g id="Group_1938" data-name="Group 1938" transform="translate(0 18.172)">
        <path id="Path_835" data-name="Path 835" d="M76.137,159.327a7.138,7.138,0,1,1,7.138-7.137A7.146,7.146,0,0,1,76.137,159.327Zm0-13.362a6.224,6.224,0,1,0,6.224,6.224A6.231,6.231,0,0,0,76.137,145.966Z" transform="translate(-69 -145.052)" fill="#618bc8"/>
      </g>
      <g id="Group_1939" data-name="Group 1939" transform="translate(0.534 65.739)">
        <path id="Path_836" data-name="Path 836" d="M80.081,370.783a8.741,8.741,0,1,1,8.741-8.741A8.751,8.751,0,0,1,80.081,370.783Zm0-16.568a7.827,7.827,0,1,0,7.828,7.827A7.836,7.836,0,0,0,80.081,354.215Z" transform="translate(-71.34 -353.301)" fill="#618bc8"/>
      </g>
      <g id="Group_1940" data-name="Group 1940" transform="translate(47.567 72.152)">
        <path id="Path_837" data-name="Path 837" d="M283.317,393.516a6.069,6.069,0,1,1,6.069-6.069A6.075,6.075,0,0,1,283.317,393.516Zm0-11.224a5.155,5.155,0,1,0,5.155,5.155A5.161,5.161,0,0,0,283.317,382.293Z" transform="translate(-277.248 -381.379)" fill="#618bc8"/>
      </g>
      <g id="Group_1941" data-name="Group 1941" transform="translate(63.6 37.145)">
        <path id="Path_838" data-name="Path 838" d="M356.987,247.2a9.543,9.543,0,1,1,9.542-9.542A9.554,9.554,0,0,1,356.987,247.2Zm0-18.171a8.629,8.629,0,1,0,8.629,8.629A8.639,8.639,0,0,0,356.987,229.032Z" transform="translate(-347.444 -228.118)" fill="#618bc8"/>
      </g>
      <g id="Group_1942" data-name="Group 1942" transform="translate(22.714 33.236)">
        <path id="Path_839" data-name="Path 839" d="M182.8,238.807a14.354,14.354,0,0,1-5.09-27.775.457.457,0,0,1,.324.854,13.44,13.44,0,1,0,18.2,12.568,13.353,13.353,0,0,0-3.91-9.477.457.457,0,0,1,.648-.645A14.353,14.353,0,0,1,182.8,238.807Z" transform="translate(-168.444 -211.002)" fill="#618bc8"/>
      </g>
      <g id="Group_1943" data-name="Group 1943" transform="translate(34.909 9.487)">
        <path id="Path_840" data-name="Path 840" d="M227.632,118.632a5.8,5.8,0,1,1,5.8-5.8A5.808,5.808,0,0,1,227.632,118.632Zm0-10.689a4.888,4.888,0,1,0,4.888,4.888A4.893,4.893,0,0,0,227.632,107.943Z" transform="translate(-221.831 -107.029)" fill="#618bc8"/>
      </g>
      <g id="Group_1944" data-name="Group 1944" transform="translate(11.625 29.529)">
        <path id="Path_841" data-name="Path 841" d="M132.909,206.11a.455.455,0,0,1-.291-.105l-12.56-10.422a.457.457,0,0,1,.584-.7L133.2,205.3a.457.457,0,0,1-.292.808Z" transform="translate(-119.893 -194.774)" fill="#618bc8"/>
      </g>
      <g id="Group_1945" data-name="Group 1945" transform="translate(14.03 55.45)">
        <path id="Path_842" data-name="Path 842" d="M130.879,321.2a.457.457,0,0,1-.323-.78l12.025-12.025a.457.457,0,1,1,.646.646L131.2,321.063A.455.455,0,0,1,130.879,321.2Z" transform="translate(-130.422 -308.258)" fill="#618bc8"/>
      </g>
      <g id="Group_1946" data-name="Group 1946" transform="translate(43.425 58.39)">
        <path id="Path_843" data-name="Path 843" d="M267.321,336.2a.457.457,0,0,1-.4-.238L259.17,321.8a.457.457,0,0,1,.8-.439l7.75,14.163a.457.457,0,0,1-.4.676Z" transform="translate(-259.114 -321.127)" fill="#618bc8"/>
      </g>
      <g id="Group_1947" data-name="Group 1947" transform="translate(50.64 46.364)">
        <path id="Path_844" data-name="Path 844" d="M304.253,269.394H291.159a.457.457,0,0,1,0-.914h13.094a.457.457,0,0,1,0,.914Z" transform="translate(-290.702 -268.48)" fill="#618bc8"/>
      </g>
      <g id="Group_1948" data-name="Group 1948" transform="translate(26.133)">
        <path id="Path_845" data-name="Path 845" d="M197.982,105.158h-.006a.457.457,0,0,1-.357-.18l-.471-.618c-.345-.451-.685-.9-1.022-1.344-2-2.655-4.611-6.169-7.085-9.8A67.819,67.819,0,0,1,185.1,86.9a14.575,14.575,0,0,1,23.192-17.124,14.293,14.293,0,0,1,4.185,8.771h0a14.671,14.671,0,0,1-1.933,8.966,88.1,88.1,0,0,1-5.276,8.082c-1.561,2.16-3.173,4.336-4.733,6.441q-1.016,1.37-2.029,2.742c-.035.047-.071.091-.112.142l-.056.069A.457.457,0,0,1,197.982,105.158Zm-.005-38.749a13.675,13.675,0,0,0-12.068,20.062A67.037,67.037,0,0,0,189.8,92.7c2.464,3.618,5.067,7.12,7.06,9.767.336.446.675.889,1.018,1.338l.109.143q.908-1.23,1.82-2.458c1.558-2.1,3.169-4.276,4.726-6.432a87.1,87.1,0,0,0,5.222-8,13.774,13.774,0,0,0,1.819-8.417h0a13.4,13.4,0,0,0-3.923-8.223A13.646,13.646,0,0,0,197.977,66.409Z" transform="translate(-183.409 -65.495)" fill="#618bc8"/>
      </g>
    </g>
  </g>
</svg>
