<svg xmlns="http://www.w3.org/2000/svg" xmlns:xlink="http://www.w3.org/1999/xlink" width="115" height="115" viewBox="0 0 115 115">
  <defs>
    <clipPath id="clip-path">
      <rect id="Rectangle_584" data-name="Rectangle 584" width="115" height="115" transform="translate(-216 1707)" fill="#fff" stroke="#707070" stroke-width="1"/>
    </clipPath>
  </defs>
  <g id="our-approach-tile-img-2" transform="translate(216 -1707)" clip-path="url(#clip-path)">
    <g id="Group_1983" data-name="Group 1983" transform="translate(-198 1719)">
      <g id="Group_1972" data-name="Group 1972" transform="translate(0 6.082)">
        <path id="Path_866" data-name="Path 866" d="M627,156.377c-.03,0,.031.006,0,0-8.9-1.806-17.178-5.957-23-13a41.39,41.39,0,0,1-9-26,38.677,38.677,0,0,1,9-25,40.91,40.91,0,0,1,23-14c.246-.051.95-.248,1,0s-.753.95-1,1a37.769,37.769,0,0,0-22,13,39.222,39.222,0,0,0,0,50c5.689,6.882,13.3,12.236,22,14,.247.05,1.05-.247,1,0C627.956,156.593,627.213,156.377,627,156.377Z" transform="translate(-595 -78.459)" fill="#1e1b4c"/>
      </g>
      <g id="Group_1973" data-name="Group 1973" transform="translate(47.412 6.082)">
        <path id="Path_867" data-name="Path 867" d="M803.157,156.377c-.213,0-.956.217-1,0-.05-.247.753.05,1,0,8.7-1.764,16.311-7.118,22-14a39.222,39.222,0,0,0,0-50,37.77,37.77,0,0,0-22-13c-.247-.05-1.05-.753-1-1s.753-.05,1,0a40.91,40.91,0,0,1,23,14,38.677,38.677,0,0,1,9,25,41.39,41.39,0,0,1-9,26c-5.822,7.043-14.1,11.194-23,13C803.127,156.383,803.187,156.377,803.157,156.377Z" transform="translate(-802.569 -78.459)" fill="#1e1b4c"/>
      </g>
      <g id="Group_1974" data-name="Group 1974" transform="translate(12.197 16.935)">
        <path id="Path_868" data-name="Path 868" d="M703.2,149.038c-.213,0,.044.217,0,0a27.568,27.568,0,0,0-54,0c-.05.247.247.049,0,0s-1.05.247-1,0a28.543,28.543,0,0,1,56,0c.05.247-.753-.05-1,0C703.171,149.044,703.231,149.038,703.2,149.038Z" transform="translate(-648.398 -125.973)" fill="#1e1b4c"/>
      </g>
      <g id="Group_1975" data-name="Group 1975" transform="translate(12.437 51.423)">
        <path id="Path_869" data-name="Path 869" d="M677.012,299.539c-6.477,0-12.944-2.975-18-7a27.506,27.506,0,0,1-10-15c-.06-.245.755-.94,1-1s-.06.755,0,1a28.37,28.37,0,0,0,10,15,27.083,27.083,0,0,0,34,0,28.371,28.371,0,0,0,10-15c.06-.245-.245-1.06,0-1s.06.755,0,1c-1.474,6.059-4.094,11.094-9,15C689.956,296.564,683.489,299.539,677.012,299.539Z" transform="translate(-649.448 -276.962)" fill="#1e1b4c"/>
      </g>
      <g id="Group_1976" data-name="Group 1976" transform="translate(23.992 29.342)">
        <path id="Path_870" data-name="Path 870" d="M716.044,211.95a16,16,0,1,1,16-16A16.032,16.032,0,0,1,716.044,211.95Zm0-31a15,15,0,1,0,15,15A14.97,14.97,0,0,0,716.044,180.95Z" transform="translate(-700.036 -180.293)" fill="#1e1b4c"/>
      </g>
      <g id="Group_1977" data-name="Group 1977" transform="translate(34.223)">
        <path id="Path_871" data-name="Path 871" d="M750.606,62.831c-3.17,0-6-1.83-6-5a6,6,0,0,1,12,0C756.606,61,753.777,62.831,750.606,62.831Zm0-10a5,5,0,1,0,5,5A5.127,5.127,0,0,0,750.606,52.831Z" transform="translate(-744.83 -51.831)" fill="#1e1b4c"/>
      </g>
      <g id="Group_1978" data-name="Group 1978" transform="translate(34.223 79.031)">
        <path id="Path_872" data-name="Path 872" d="M750.606,409.8a6,6,0,1,1,6-6A6.194,6.194,0,0,1,750.606,409.8Zm0-11a5,5,0,1,0,5,5A5.127,5.127,0,0,0,750.606,398.8Z" transform="translate(-744.83 -397.831)" fill="#1e1b4c"/>
      </g>
      <g id="Group_1979" data-name="Group 1979" transform="translate(7.409 41.28)">
        <path id="Path_873" data-name="Path 873" d="M636.028,241.274h-8c-.252,0-1,.252-1,0v-8a1.935,1.935,0,0,1,1-1h8c.252,0,0,.748,0,1v8C636.028,241.527,636.281,241.274,636.028,241.274Zm-8-1h8v-7h-8Z" transform="translate(-627.438 -232.554)" fill="#1e1b4c"/>
      </g>
      <g id="Group_1980" data-name="Group 1980" transform="translate(63.154 41.28)">
        <path id="Path_874" data-name="Path 874" d="M880.337,241.274h-8c-.252,0-1,.252-1,0v-8a1.935,1.935,0,0,1,1-1h8c.252,0,0,.748,0,1v8C880.337,241.527,880.589,241.274,880.337,241.274Zm-8-1h7v-7h-7Z" transform="translate(-871.491 -232.554)" fill="#1e1b4c"/>
      </g>
      <g id="Group_1981" data-name="Group 1981" transform="translate(39.389 33.828)">
        <path id="Path_875" data-name="Path 875" d="M779.056,223.1c-.117,0,.089.089,0,0l-11-11a7.8,7.8,0,0,1-1-1c0-.121.914.086,1,0l11-11c.179-.179-.178-.179,0,0a1,1,0,0,1,0,1l-11,10,11,11a1,1,0,0,1,0,1C778.967,223.192,779.173,223.1,779.056,223.1Z" transform="translate(-767.444 -199.93)" fill="#1e1b4c"/>
      </g>
      <g id="Group_1982" data-name="Group 1982" transform="translate(24.168 44.866)">
        <path id="Path_876" data-name="Path 876" d="M716.64,249.391h-15a1.935,1.935,0,0,1-1-1c0-.252.748,0,1,0h15c.252,0,1-.252,1,0A1.935,1.935,0,0,1,716.64,249.391Z" transform="translate(-700.808 -248.257)" fill="#1e1b4c"/>
      </g>
    </g>
  </g>
</svg>
